<svg width="350" height="184" viewBox="0 0 350 184" fill="none" xmlns="http://www.w3.org/2000/svg">
<path d="M347.836 30.1541C347.836 30.1541 343.621 27.5824 338.961 37.6071C334.302 47.6319 332.602 53.3856 332.602 53.3856C332.602 53.3856 331.347 55.4934 329.884 54.1974C328.422 52.9015 326.355 49.1548 323.954 49.9213C321.483 50.7231 320.762 53.5419 321.388 57.6214C322.013 61.7009 323.047 70.6869 323.142 71.4987C323.238 72.3106 322.815 73.5158 321.675 72.7695C320.535 72.0232 313.879 65.15 310.793 68.5034C307.707 71.8568 311.297 82.9354 311.691 84.1356C312.084 85.3357 311.837 85.8854 311.262 86.2132C310.687 86.5409 308.67 84.0095 306.724 82.1236C304.777 80.2376 302.13 78.4021 300.516 80.4847C298.902 82.5673 298.66 90.9885 307.147 104.341L311.484 110.272L318.831 109.596C334.463 107.196 340.645 101.477 341.15 98.8904C341.654 96.3035 338.548 95.537 335.835 95.295C333.122 95.0529 329.884 95.1891 329.753 94.5436C329.622 93.8982 329.874 93.3788 331.039 92.8594C332.204 92.34 342.91 87.7613 343.409 83.2279C343.908 78.6946 334.332 78.2307 333.036 77.8474C331.74 77.4642 332.365 76.3649 333.036 75.906C333.707 75.4471 341.16 70.3087 344.634 68.095C348.109 65.8812 349.712 63.4961 348.704 61.1059C347.695 58.8014 343.525 59.709 341.583 59.4569C339.642 59.2048 340.408 56.8751 340.408 56.8751C340.408 56.8751 343.621 51.8324 348.098 41.7119C352.576 31.5913 347.74 30.1138 347.74 30.1138" fill="#F5F5F5"/>
<path d="M343.661 39.125C343.661 39.125 343.636 39.2006 343.575 39.3418C343.515 39.483 343.424 39.7049 343.313 39.9722L342.274 42.3674C341.367 44.45 340.035 47.4554 338.376 51.1618C335.058 58.5745 330.389 68.7707 325.195 80.0158C320.001 91.2609 315.291 101.457 311.933 108.855L307.964 117.614L306.885 119.994C306.759 120.256 306.663 120.463 306.598 120.609C306.566 120.68 306.531 120.749 306.492 120.816C306.514 120.742 306.541 120.669 306.572 120.599C306.638 120.448 306.724 120.241 306.835 119.974C307.077 119.414 307.43 118.607 307.873 117.573C308.781 115.491 310.112 112.49 311.771 108.784C315.089 101.371 319.759 91.1752 324.953 79.925C330.147 68.6749 334.841 58.4887 338.2 51.0962C339.874 47.4101 341.225 44.4198 342.168 42.3422L343.253 39.9621C343.374 39.6948 343.469 39.4931 343.54 39.3418C343.611 39.1906 343.661 39.125 343.661 39.125Z" fill="#E0E0E0"/>
<path d="M326.652 55.2861C326.743 55.4445 326.812 55.614 326.859 55.7904C326.98 56.1081 327.136 56.577 327.328 57.1569C327.701 58.3218 328.18 59.9354 328.674 61.7306L329.92 66.3295C330.071 66.8792 330.197 67.338 330.303 67.7213C330.364 67.8834 330.403 68.053 330.419 68.2255C330.329 68.0672 330.259 67.8977 330.212 67.7213C330.091 67.4036 329.935 66.9346 329.749 66.3497C329.385 65.1848 328.927 63.5611 328.432 61.7659L327.157 57.1771L326.768 55.7904C326.711 55.6273 326.672 55.4581 326.652 55.2861Z" fill="#E0E0E0"/>
<path d="M331.1 68.3315C331.1 68.266 334.367 67.1314 338.447 65.8102C342.526 64.489 345.854 63.4452 345.875 63.5107C345.895 63.5763 342.607 64.7109 338.527 66.0321C334.448 67.3532 331.12 68.3971 331.1 68.3315Z" fill="#E0E0E0"/>
<path d="M322.341 85.2447C322.52 85.211 322.703 85.1958 322.885 85.1993L324.358 85.1489C325.598 85.1035 327.318 85.038 329.209 84.8917C331.1 84.7455 332.809 84.574 334.05 84.4328L335.512 84.2664C335.692 84.233 335.875 84.2228 336.057 84.2362C335.894 84.2955 335.725 84.3377 335.553 84.3622C335.21 84.4278 334.71 84.5135 334.095 84.6043C332.865 84.7909 331.15 85.0027 329.254 85.1438C327.358 85.285 325.634 85.3254 324.383 85.3203C323.763 85.3203 323.259 85.3203 322.911 85.2951C322.719 85.3045 322.528 85.2875 322.341 85.2447Z" fill="#E0E0E0"/>
<path d="M315.725 74.332C315.841 74.452 315.943 74.5857 316.027 74.7304C316.209 74.9926 316.471 75.3809 316.784 75.865C317.414 76.8281 318.266 78.1695 319.194 79.6571C320.122 81.1446 320.954 82.5011 321.544 83.4895C321.841 83.9937 322.073 84.3871 322.23 84.6694C322.325 84.8082 322.401 84.9592 322.457 85.1182C322.335 85.0011 322.232 84.8669 322.149 84.7199C321.967 84.4526 321.71 84.0694 321.393 83.5853C320.767 82.6221 319.915 81.2808 318.982 79.7882C318.049 78.2956 317.222 76.9441 316.632 75.9558C316.34 75.4515 316.128 75.0582 315.946 74.7808C315.855 74.6407 315.78 74.49 315.725 74.332Z" fill="#E0E0E0"/>
<path d="M306.093 88.2803C306.24 88.4341 306.37 88.6031 306.482 88.7845L307.455 90.2368C308.262 91.4672 309.371 93.1767 310.581 95.0727C311.791 96.9687 312.876 98.6984 313.647 99.954L314.555 101.467C314.672 101.646 314.773 101.835 314.857 102.032C314.711 101.877 314.581 101.708 314.469 101.527L313.501 100.075C312.689 98.8396 311.58 97.1301 310.369 95.2341C309.159 93.338 308.08 91.6084 307.304 90.3528C306.94 89.7578 306.638 89.2535 306.401 88.84C306.279 88.6648 306.176 88.4772 306.093 88.2803Z" fill="#E0E0E0"/>
<path d="M314.742 101.638C314.965 101.587 315.193 101.56 315.422 101.558L317.288 101.427C318.862 101.316 321.04 101.154 323.435 100.922C325.83 100.69 327.974 100.418 329.562 100.201L331.413 99.9541C331.639 99.9133 331.869 99.8931 332.098 99.8936C331.881 99.9682 331.656 100.021 331.428 100.05C330.994 100.136 330.364 100.247 329.587 100.373C328.024 100.63 325.861 100.932 323.46 101.174C321.06 101.416 318.877 101.553 317.298 101.618C316.507 101.648 315.871 101.669 315.427 101.669C315.198 101.678 314.969 101.668 314.742 101.638Z" fill="#E0E0E0"/>
<path d="M47.5521 79.8237C59.3165 71.9724 62.1757 57.1319 61.9387 43.7235C61.8933 41.4845 62.1808 39.1347 61.1319 37.168C60.083 35.2014 57.602 33.8096 55.5497 34.7224C53.8604 35.4788 53.0939 37.4 52.1308 38.9834C50.8318 41.0989 48.9638 42.8062 46.7402 43.9101C45.2879 44.6261 43.4978 45.0497 42.0858 44.2529C40.1495 43.1637 39.9578 40.4962 40.0083 38.2724L40.2806 25.8473C40.326 23.6235 40.3713 21.3543 39.7007 19.2314C39.03 17.1084 37.5172 15.1317 35.3842 14.5064C33.2511 13.8811 30.5836 15.0611 30.0944 17.2294C29.8927 18.1321 30.0642 19.075 29.9885 19.9978C29.9129 20.9206 29.4843 21.9342 28.5665 22.1763C27.6488 22.4183 26.7764 21.7779 26.1107 21.1224C23.8214 18.838 22.2884 15.9284 20.8614 13.0541C19.4343 10.1798 18.0425 7.18953 15.975 4.7136C13.9076 2.23766 11.0131 0.250856 7.79083 0.0188949C4.56858 -0.213067 1.10429 1.70818 0.226866 4.81949C-0.650554 7.9308 1.1648 11.148 3.14151 13.7147C6.08494 17.5169 9.56151 20.8746 13.4638 23.684C14.1698 24.1883 14.9262 24.7379 15.1884 25.5649C15.6523 27.0777 14.2101 28.5048 12.7175 28.9737C11.0282 29.478 9.18764 29.3015 7.45297 29.478C5.7183 29.6545 3.77689 30.3907 3.08604 31.9993C2.13298 34.2584 4.01893 36.6688 5.88975 38.2572C9.63771 41.4389 13.9011 43.9577 18.4964 45.7052C20.1453 46.3305 21.88 46.8802 23.1961 48.0501C24.5122 49.2199 25.2938 51.2269 24.4618 52.7801C23.6298 54.3332 21.5472 54.7971 19.8175 54.4643C18.0879 54.1315 16.5499 53.1683 14.906 52.5279C11.8249 51.3278 7.8463 51.479 5.80403 54.0911C4.47277 55.8056 4.32149 58.2211 4.94678 60.2986C5.57207 62.3762 6.88315 64.1764 8.27492 65.8456C13.1461 71.6648 19.4292 76.3847 26.5696 78.9564C33.71 81.5282 40.3512 82.2846 47.5268 79.8137" fill="#EBEBEB"/>
<path d="M46.6494 80.0809C44.7584 73.2986 39.5897 57.3386 36.4885 49.8251L34.184 44.2782C33.4226 42.4578 32.6712 40.6576 31.819 38.938C30.1815 35.6465 28.3634 32.4479 26.373 29.357C24.487 26.3818 22.591 23.6286 20.8261 21.0619C19.0611 18.4952 17.2962 16.1503 15.6422 14.0677C13.034 10.7677 10.1674 7.68026 7.06973 4.83464C5.97547 3.82611 5.1031 3.06972 4.50302 2.56545L3.78697 1.95025C3.63065 1.82418 3.54492 1.76367 3.54492 1.76367C3.54492 1.76367 3.61552 1.83931 3.76176 1.97547L4.42738 2.5705C5.00729 3.07476 5.86958 3.86141 6.94871 4.88507C9.99988 7.76424 12.8316 10.8674 15.4203 14.1686C17.0642 16.2562 18.7687 18.6162 20.5588 21.1778C22.3489 23.7395 24.2248 26.5029 26.1057 29.473C28.0836 32.565 29.8899 35.7635 31.5165 39.054C32.3586 40.7685 33.1099 42.5839 33.8714 44.3841C34.6328 46.1843 35.3842 48.0602 36.1759 49.931C39.2569 57.4344 44.4408 73.3793 46.3469 80.1414" fill="#E0E0E0"/>
<path d="M31.7129 38.9025C31.8173 38.5944 31.8916 38.2769 31.9348 37.9545C32.0558 37.3393 32.2071 36.4417 32.3785 35.3424C32.7265 33.1337 33.1047 30.0678 33.5131 26.6842C33.9216 23.3006 34.3502 20.2498 34.7435 18.0512C34.9351 16.9519 35.1015 16.0644 35.2478 15.4542C35.3266 15.1398 35.3789 14.8193 35.4041 14.4961C35.2807 14.7957 35.1861 15.1064 35.1217 15.4239C34.9553 16.0291 34.7536 16.9367 34.5317 18.0108C34.0426 20.1993 33.5888 23.2602 33.1803 26.6589C32.7718 30.0577 32.4189 33.048 32.1466 35.3273C32.0104 36.3862 31.8944 37.2687 31.8037 37.9494C31.7465 38.264 31.7162 38.5828 31.7129 38.9025Z" fill="#E0E0E0"/>
<path d="M2.83887 33.1291C2.93517 33.1598 3.03533 33.1768 3.13638 33.1795L3.99363 33.2653C4.73994 33.3409 5.81403 33.4418 7.1352 33.6082C9.78259 33.9208 13.4284 34.4906 17.4222 35.2924C21.416 36.0942 24.9862 36.9968 27.5579 37.7179C28.8438 38.0709 29.8775 38.3835 30.5835 38.5953L31.4105 38.8374C31.5042 38.8737 31.6027 38.8958 31.703 38.9029C31.619 38.8476 31.5272 38.8051 31.4306 38.7769C31.2088 38.6911 30.9264 38.5903 30.6238 38.4743C29.9229 38.2222 28.8942 37.8692 27.5982 37.4658C25.0416 36.6842 21.4613 35.7513 17.4625 34.9445C13.4637 34.1376 9.83805 33.6283 7.16041 33.3712C5.8342 33.235 4.75003 33.1695 4.00372 33.1392H3.14143C3.04139 33.1232 2.93975 33.1199 2.83887 33.1291Z" fill="#E0E0E0"/>
<path d="M43.8354 70.8482C43.9124 70.739 43.9782 70.6225 44.0321 70.5003L44.5364 69.4917C44.97 68.5942 45.5449 67.2831 46.2912 65.6543C47.7334 62.4018 49.5841 57.8432 51.5658 52.7905C53.5476 47.7378 55.3579 43.149 56.7345 39.8713L58.3885 35.9985C58.5701 35.5649 58.7213 35.2169 58.8373 34.9446C58.8945 34.8231 58.9401 34.6965 58.9735 34.5664C58.892 34.6726 58.8258 34.7897 58.7768 34.9143L58.2725 35.9229C57.8389 36.8205 57.2388 38.1316 56.5227 39.7553C55.0805 43.0128 53.2248 47.5714 51.2481 52.6241C49.2714 57.6768 47.451 62.2455 46.0643 65.5232L44.4103 69.3959L43.9666 70.4498C43.9067 70.5768 43.8627 70.7106 43.8354 70.8482Z" fill="#E0E0E0"/>
<path d="M5.54688 58.0342C5.66751 58.0972 5.79423 58.1479 5.92507 58.1855L7.0395 58.5637L11.1442 59.9403C14.6085 61.1001 19.3738 62.7591 24.6333 64.6047C29.8927 66.4503 34.6782 68.0741 38.1627 69.1784C39.9024 69.7281 41.3194 70.1617 42.2977 70.4441L43.4323 70.7618C43.5631 70.8062 43.6984 70.8366 43.8357 70.8526C43.7132 70.7883 43.5849 70.7359 43.4524 70.6963L42.338 70.3181L38.2333 68.9515C34.769 67.7917 30.0037 66.1327 24.7442 64.2871C19.4847 62.4414 14.7043 60.8127 11.2198 59.7134C9.47509 59.1637 8.06315 58.7301 7.07984 58.4477L5.95029 58.1249C5.81911 58.0816 5.68399 58.0512 5.54688 58.0342Z" fill="#E0E0E0"/>
<path d="M241.174 2.13721H304.747L292.312 10.977V18.3594C292.284 22.0069 290.808 25.4941 288.21 28.0539C285.611 30.6137 282.102 32.0367 278.455 32.0098H238.562C234.915 32.0367 231.406 30.6137 228.807 28.0539C226.209 25.4941 224.733 22.0069 224.705 18.3594C224.721 16.2127 225.16 14.0902 225.996 12.1131C226.832 10.136 228.05 8.34296 229.579 6.83652C231.109 5.33007 232.92 4.13969 234.909 3.33337C236.899 2.52705 239.028 2.12059 241.174 2.13721Z" fill="#F5F5F5"/>
<path d="M281.586 12.0051C281.586 12.0757 270.996 12.1362 257.885 12.1362C244.775 12.1362 234.185 12.0757 234.185 12.0051C234.185 11.9345 244.775 11.874 257.885 11.874C270.996 11.874 281.586 11.9295 281.586 12.0051Z" fill="#E0E0E0"/>
<path d="M281.586 16.9172C281.586 16.9878 270.996 17.0484 257.885 17.0484C244.775 17.0484 234.185 16.9878 234.185 16.9172C234.185 16.8466 244.775 16.7861 257.885 16.7861C270.996 16.7861 281.586 16.8416 281.586 16.9172Z" fill="#E0E0E0"/>
<path d="M144.724 153.441H69.4976L81.7512 162.306V179.703C81.7512 180.181 81.8453 180.653 82.028 181.094C82.2108 181.535 82.4787 181.935 82.8164 182.273C83.154 182.61 83.5549 182.877 83.996 183.059C84.437 183.241 84.9097 183.335 85.3869 183.334H144.724C145.201 183.335 145.674 183.241 146.115 183.059C146.556 182.877 146.957 182.61 147.294 182.273C147.632 181.935 147.9 181.535 148.083 181.094C148.265 180.653 148.359 180.181 148.359 179.703V157.072C148.358 156.109 147.974 155.185 147.293 154.505C146.611 153.824 145.687 153.441 144.724 153.441Z" fill="#F5F5F5"/>
<path d="M141.587 165.736C141.587 165.811 130.241 165.867 116.248 165.867C102.255 165.867 90.9087 165.811 90.9087 165.736C90.9087 165.66 102.25 165.604 116.248 165.604C130.246 165.604 141.587 165.665 141.587 165.736Z" fill="#E0E0E0"/>
<path d="M141.587 172.416C141.587 172.487 130.241 172.547 116.248 172.547C102.255 172.547 90.9087 172.487 90.9087 172.416C90.9087 172.346 102.25 172.285 116.248 172.285C130.246 172.285 141.587 172.346 141.587 172.416Z" fill="#E0E0E0"/>
<path d="M298.318 67.7061H210.278C199.475 67.7061 190.718 76.4636 190.718 87.2665V158.922C190.718 169.725 199.475 178.483 210.278 178.483H298.318C309.121 178.483 317.878 169.725 317.878 158.922V87.2665C317.878 76.4636 309.121 67.7061 298.318 67.7061Z" fill="#DF8F31"/>
<path d="M298.318 67.7061H210.278C199.475 67.7061 190.718 76.4636 190.718 87.2665V158.922C190.718 169.725 199.475 178.483 210.278 178.483H298.318C309.121 178.483 317.878 169.725 317.878 158.922V87.2665C317.878 76.4636 309.121 67.7061 298.318 67.7061Z" fill="#01C09A"/>
<path d="M317.843 106.323H336.889L317.414 125.803L317.843 106.323Z" fill="#DF8F31"/>
<path d="M317.843 106.323H336.889L317.414 125.803L317.843 106.323Z" fill="#01C09A"/>
<path d="M187.672 118.299L179.689 109.223C177.531 107.064 176.79 106.025 177.224 105.647C177.798 105.143 177.551 105.309 182.034 108.673C182.034 108.673 175.681 103.817 177.884 103.787C178.272 103.787 179.352 104.412 180.506 105.168C178.933 103.832 178.489 102.929 178.797 102.501C179.301 101.754 183.194 104.452 184.984 105.748C183.522 104.659 180.733 102.546 180.244 101.88C179.568 100.973 180.935 101.048 182.044 101.427C183.29 101.85 190.173 105.365 192.21 106.273C192.374 106.37 192.556 106.431 192.745 106.451C192.934 106.471 193.126 106.45 193.306 106.389C193.486 106.328 193.651 106.229 193.789 106.099C193.927 105.968 194.036 105.809 194.106 105.632C194.858 102.475 197.132 100.423 197.999 100.156C198.867 99.8886 199.537 100.998 198.917 101.805C198.333 102.744 197.882 103.758 197.576 104.82C197.295 105.653 197.157 106.528 197.167 107.407C197.167 108.416 197.238 109.288 197.303 110.019L204.6 120.029L192.397 127.089L187.672 118.299Z" fill="#FFBE9D"/>
<path d="M184.818 110.085C184.737 110.195 183.305 109.222 181.651 107.906C179.997 106.59 178.706 105.43 178.802 105.324C178.898 105.218 180.315 106.197 181.969 107.503C183.623 108.809 184.888 109.969 184.818 110.085Z" fill="#AA6550"/>
<path d="M186.361 108.491C186.28 108.607 184.712 107.649 182.856 106.358C181 105.067 179.558 103.922 179.639 103.812C179.72 103.701 181.288 104.649 183.144 105.94C184.999 107.23 186.441 108.375 186.361 108.491Z" fill="#AA6550"/>
<path d="M187.49 106.797C187.409 106.913 185.907 106.036 184.137 104.836C182.367 103.636 180.995 102.572 181.071 102.451C181.146 102.33 182.649 103.212 184.424 104.412C186.199 105.612 187.566 106.681 187.49 106.797Z" fill="#AA6550"/>
<path d="M197.984 111.376L227.07 148.258L220.409 163.764C220.409 163.764 212.431 161.999 210.011 158.641C207.59 155.282 187.672 118.3 187.672 118.3L197.984 111.376Z" fill="#EB996E"/>
<path d="M271.818 59.7793C273.911 61.5946 273.906 64.7917 273.664 67.55C273.422 70.3083 273.235 73.4499 275.146 75.4569C276.725 77.1109 279.584 77.832 279.947 80.086C280.033 80.6156 279.953 81.1589 279.718 81.6411C279.482 82.1233 279.103 82.5208 278.633 82.7789C278.163 83.037 277.624 83.1431 277.091 83.0826C276.558 83.0221 276.056 82.7979 275.656 82.4409C276.271 84.221 275.847 86.4448 274.304 87.5239C272.761 88.603 270.174 87.9374 269.695 86.117C269.774 86.4209 269.789 86.7377 269.739 87.0477C269.69 87.3576 269.577 87.654 269.408 87.9184C269.239 88.1828 269.017 88.4096 268.756 88.5844C268.496 88.7593 268.202 88.8786 267.893 88.9349C267.584 88.9912 267.267 88.9832 266.962 88.9115C266.656 88.8398 266.368 88.7059 266.117 88.5181C265.865 88.3304 265.655 88.0928 265.5 87.8202C265.344 87.5477 265.246 87.246 265.212 86.9339" fill="#263238"/>
<path d="M241.85 78.3969C241.569 79.0723 241.03 79.6081 240.354 79.8866C239.677 80.1651 238.917 80.1634 238.242 79.8819C237.567 79.6004 237.031 79.0621 236.752 78.3855C236.474 77.7089 236.475 76.9493 236.757 76.2739C237.236 75.225 238.371 74.4687 238.482 73.3189C238.613 71.9322 237.196 70.9388 235.96 70.3337C234.725 69.7286 233.232 68.9419 233.096 67.5501C232.96 66.1584 234.165 65.165 235.169 64.2674C236.172 63.3698 237.186 61.978 236.545 60.7829C236.228 60.1677 235.567 59.8198 235.138 59.2701C234.195 58.07 234.69 56.1588 235.895 55.236C237.1 54.3132 238.764 54.167 240.267 54.4342C241.769 54.7015 243.181 55.3268 244.644 55.7655C247.068 56.4704 249.612 56.665 252.115 56.3369C254.618 56.0088 257.026 55.1652 259.187 53.8594" fill="#263238"/>
<path d="M250.78 110.917C253.386 111.443 256.093 110.923 258.319 109.471C260.544 108.018 262.109 105.748 262.676 103.152L269.832 70.3441C270.278 68.4497 270.34 66.485 270.015 64.5661C269.689 62.6472 268.981 60.8132 267.934 59.1724C266.887 57.5316 265.522 56.1175 263.919 55.0135C262.316 53.9096 260.508 53.1383 258.602 52.7453L257.855 52.6344C254.21 52.0985 250.496 52.9556 247.455 55.0348C244.413 57.1141 242.266 60.263 241.441 63.8543C239.848 70.7778 238.179 78.4477 237.675 82.2145C236.631 90.0155 244.23 92.3654 244.23 92.3654L242.864 98.9208C242.593 100.227 242.582 101.574 242.833 102.884C243.085 104.194 243.592 105.441 244.327 106.555C245.062 107.668 246.009 108.625 247.115 109.371C248.221 110.117 249.463 110.638 250.77 110.902L250.78 110.917Z" fill="#FFBE9D"/>
<path d="M242.844 69.0172C242.799 69.3067 242.869 69.6021 243.039 69.841C243.208 70.08 243.463 70.2438 243.751 70.298C243.891 70.3298 244.035 70.3334 244.176 70.3086C244.317 70.2838 244.451 70.2311 244.572 70.1536C244.692 70.076 244.796 69.9753 244.876 69.8572C244.957 69.7391 245.013 69.6061 245.042 69.466C245.089 69.1768 245.021 68.8807 244.852 68.6413C244.684 68.4018 244.428 68.2381 244.14 68.1851C244 68.1533 243.855 68.1497 243.714 68.1744C243.573 68.1991 243.438 68.2518 243.317 68.3292C243.196 68.4067 243.092 68.5074 243.011 68.6256C242.93 68.7437 242.873 68.8768 242.844 69.0172Z" fill="#263238"/>
<path d="M242.556 67.908C242.672 68.0744 243.605 67.5701 244.805 67.7516C246.005 67.9332 246.787 68.6543 246.938 68.5282C247.014 68.4727 246.908 68.1903 246.57 67.8575C246.105 67.4229 245.516 67.1429 244.886 67.0557C244.264 66.9619 243.628 67.0678 243.07 67.3583C242.662 67.5903 242.501 67.8323 242.556 67.908Z" fill="#263238"/>
<path d="M254.538 70.9341C254.492 71.2238 254.561 71.5199 254.731 71.7591C254.901 71.9984 255.157 72.162 255.445 72.215C255.585 72.2467 255.73 72.2501 255.871 72.225C256.012 72.1998 256.147 72.1467 256.267 72.0687C256.388 71.9907 256.491 71.8894 256.572 71.7707C256.652 71.6521 256.708 71.5185 256.736 71.3779C256.782 71.0888 256.712 70.7934 256.543 70.5549C256.373 70.3164 256.117 70.1539 255.829 70.1021C255.689 70.0696 255.544 70.0655 255.403 70.09C255.262 70.1145 255.127 70.1671 255.007 70.2447C254.886 70.3223 254.783 70.4233 254.702 70.5418C254.622 70.6602 254.566 70.7936 254.538 70.9341Z" fill="#263238"/>
<path d="M254.285 69.8542C254.401 70.0156 255.334 69.5164 256.529 69.6979C257.724 69.8795 258.516 70.6006 258.667 70.4745C258.738 70.419 258.637 70.1366 258.294 69.8038C257.829 69.3692 257.241 69.0892 256.61 69.002C255.988 68.9081 255.352 69.0141 254.795 69.3046C254.406 69.5214 254.225 69.7786 254.285 69.8542Z" fill="#263238"/>
<path d="M248.643 78.0942C248.643 78.0236 247.932 77.7866 246.752 77.4588C246.449 77.3832 246.172 77.2773 246.152 77.0604C246.172 76.7428 246.288 76.4388 246.484 76.1881C246.884 75.4922 247.3 74.761 247.73 73.9945C249.47 70.863 250.756 68.2762 250.65 68.2056C250.544 68.135 249.011 70.616 247.271 73.7525L246.061 75.9612C245.816 76.304 245.699 76.7211 245.728 77.1411C245.759 77.2525 245.814 77.3556 245.89 77.4429C245.966 77.5301 246.061 77.5993 246.167 77.6454C246.328 77.7146 246.498 77.7637 246.671 77.7916C247.313 77.974 247.975 78.0756 248.643 78.0942Z" fill="#263238"/>
<path d="M254.658 65.1191C254.729 65.462 255.949 65.4822 257.326 65.8554C258.703 66.2285 259.782 66.7782 260.014 66.516C260.114 66.3899 259.963 66.052 259.555 65.6738C259.001 65.1977 258.345 64.8544 257.638 64.67C256.931 64.4857 256.191 64.4651 255.475 64.6098C254.91 64.7409 254.633 64.983 254.658 65.1191Z" fill="#263238"/>
<path d="M243.504 64.5097C243.675 64.8123 244.512 64.6509 245.521 64.782C246.53 64.9131 247.326 65.2358 247.538 64.9787C247.644 64.8526 247.538 64.5601 247.225 64.2475C246.778 63.867 246.227 63.6284 245.643 63.562C245.06 63.4955 244.469 63.6043 243.948 63.8743C243.585 64.1013 243.428 64.3635 243.504 64.5097Z" fill="#263238"/>
<path d="M262.631 60.5663L262.666 60.6066C263.765 61.7661 264.372 63.3057 264.36 64.9029V65.0593C264.36 67.3285 263.952 69.5977 263.957 71.8416C263.962 74.0856 264.396 76.4758 265.813 78.2407C266.393 78.9719 267.522 79.577 268.183 78.9215C268.416 78.6426 268.564 78.3033 268.611 77.9432C269.812 72.6434 271.97 68.105 272.782 62.4976C272.894 61.747 272.826 60.9803 272.583 60.2612C272.34 59.5421 271.93 58.8913 271.385 58.3626C270.336 57.3541 269.03 56.2649 267.633 56.6935C266.236 57.1222 264.194 59.3157 263.029 60.2234" fill="#263238"/>
<path d="M266.69 73.4808C266.831 73.4405 272.272 72.679 271.319 77.9788C270.366 83.2787 265.268 81.2313 265.268 81.075C265.268 80.9187 266.69 73.4808 266.69 73.4808Z" fill="#FFBE9D"/>
<path d="M267.245 79.36C267.245 79.36 267.326 79.4406 267.467 79.5365C267.67 79.6711 267.918 79.7217 268.158 79.6776C268.753 79.5718 269.383 78.77 269.58 77.8169C269.681 77.367 269.681 76.9002 269.58 76.4504C269.559 76.276 269.496 76.1093 269.397 75.9644C269.298 75.8195 269.165 75.7008 269.01 75.6183C268.909 75.5707 268.794 75.5603 268.686 75.5889C268.578 75.6175 268.484 75.6833 268.42 75.7746C268.324 75.9057 268.339 76.0217 268.309 76.0217C268.279 76.0217 268.213 75.9158 268.309 75.704C268.361 75.5784 268.456 75.475 268.576 75.4116C268.742 75.3272 268.933 75.3109 269.111 75.3662C269.322 75.4502 269.508 75.5871 269.651 75.7637C269.794 75.9403 269.889 76.1507 269.928 76.3747C270.068 76.8672 270.087 77.3861 269.983 77.8875C269.756 78.9515 269.03 79.8491 268.228 79.9348C268.078 79.9507 267.926 79.9327 267.784 79.8821C267.642 79.8314 267.513 79.7495 267.406 79.6424C267.23 79.486 267.225 79.365 267.245 79.36Z" fill="#AA6550"/>
<path d="M267.694 57.5451C269.318 55.6037 266.181 52.0234 263.66 50.8081C261.138 49.5929 257.508 50.3694 254.765 50.8535C253.035 51.1611 251.28 51.6856 249.555 51.3578C248.411 51.0714 247.316 50.6141 246.308 50.0013C245.297 49.3996 244.176 49.0069 243.01 48.8466C242.424 48.7744 241.829 48.8636 241.29 49.1044C240.75 49.3452 240.287 49.7285 239.949 50.2131C239.349 51.2216 239.768 52.8 240.897 53.1278C240.557 52.8693 240.159 52.6974 239.737 52.6266C239.316 52.5558 238.883 52.5883 238.477 52.7213C238.071 52.8543 237.703 53.0839 237.405 53.3903C237.107 53.6967 236.888 54.0708 236.766 54.4805C236.645 54.8903 236.624 55.3234 236.707 55.7428C236.79 56.1621 236.973 56.5552 237.24 56.8883C237.508 57.2213 237.853 57.4845 238.245 57.6551C238.637 57.8257 239.064 57.8987 239.49 57.8678C238.82 57.182 237.519 57.9637 237.473 58.9218C237.428 59.8799 238.184 60.6917 238.986 61.201C241.059 62.502 243.691 62.5676 246.101 62.1339C248.512 61.7003 250.821 60.8027 253.221 60.3085C255.622 59.8143 259.651 58.8764 261.819 60.0211C263.413 60.8581 264.29 63.0466 265.304 62.7491C265.784 62.5723 266.216 62.2861 266.566 61.9133C266.916 61.5404 267.174 61.0911 267.321 60.601C267.594 59.6169 267.708 58.5955 267.659 57.5754" fill="#263238"/>
<path d="M278.066 82.1282C278.166 82.1055 278.26 82.0644 278.344 82.0072C278.593 81.847 278.792 81.6198 278.919 81.3516C279.114 80.9226 279.174 80.444 279.09 79.98C278.959 79.3699 278.625 78.8222 278.142 78.4269C277.569 77.9552 276.924 77.5789 276.231 77.3125C275.452 77.0283 274.704 76.6668 273.997 76.2334C273.257 75.713 272.692 74.9796 272.378 74.1306C272.034 73.2163 271.874 72.2427 271.909 71.2664C271.96 69.2493 272.52 67.3583 272.656 65.5783C272.792 63.7982 272.565 62.1291 271.809 60.9743C271.24 60.0456 270.338 59.3692 269.287 59.0833C269.006 59.0124 268.715 58.9835 268.425 58.9976C268.324 58.9992 268.224 59.0145 268.127 59.043C268.51 59.0405 268.892 59.0879 269.262 59.1842C270.261 59.5 271.109 60.1733 271.642 61.0752C272.343 62.1946 272.585 63.8184 272.409 65.5581C272.232 67.2978 271.693 69.1888 271.632 71.2613C271.6 72.2735 271.771 73.2818 272.136 74.2264C272.474 75.1234 273.077 75.8958 273.866 76.4401C274.59 76.8747 275.355 77.2361 276.15 77.5192C276.825 77.7693 277.456 78.1232 278.021 78.5681C278.482 78.9326 278.808 79.4399 278.949 80.0103C279.041 80.4446 278.999 80.8965 278.828 81.3063C278.672 81.6569 278.404 81.946 278.066 82.1282Z" fill="#455A64"/>
<path d="M240.726 53.0022C240.655 52.9491 240.577 52.9067 240.494 52.8761C240.399 52.8297 240.302 52.7909 240.201 52.7601C240.062 52.7124 239.918 52.6769 239.773 52.6542C239.294 52.5788 238.805 52.6131 238.342 52.7546C237.879 52.8962 237.454 53.1412 237.1 53.4711C236.741 53.9084 236.472 54.4126 236.31 54.9545C236.147 55.4963 236.093 56.0651 236.152 56.6278C236.22 57.3268 236.427 58.0051 236.761 58.6226C237.095 59.2402 237.55 59.7844 238.098 60.2232C239.359 61.2385 240.893 61.8548 242.506 61.9932C244.257 62.1438 246.02 62.0368 247.74 61.6755C250.467 61.1412 253.079 60.1307 255.455 58.6903C256.474 58.0601 257.539 57.5089 258.642 57.0413C259.604 56.6509 260.63 56.4407 261.668 56.4211C263.178 56.3884 264.673 56.7352 266.015 57.4296C266.5 57.7011 266.969 57.999 267.421 58.3222C267.018 57.9255 266.561 57.5861 266.065 57.3136C264.72 56.564 263.203 56.1765 261.663 56.1891C260.599 56.1972 259.546 56.4006 258.556 56.7892C257.442 57.2562 256.365 57.8074 255.334 58.4381C252.974 59.8488 250.388 60.84 247.69 61.3679C245.995 61.7268 244.257 61.8372 242.531 61.6957C240.968 61.566 239.478 60.9765 238.25 60.0014C237.721 59.5837 237.282 59.0649 236.956 58.4752C236.63 57.8856 236.426 57.237 236.354 56.5673C236.292 56.0307 236.337 55.4873 236.486 54.9681C236.635 54.4489 236.884 53.9642 237.221 53.5417C237.557 53.2208 237.961 52.9788 238.402 52.8331C238.843 52.6874 239.311 52.6418 239.773 52.6996C240.099 52.7711 240.418 52.8723 240.726 53.0022Z" fill="#455A64"/>
<path d="M243.675 48.5898C243.657 48.995 243.721 49.3997 243.862 49.7799C244.255 50.8307 244.991 51.7187 245.95 52.3012C246.594 52.721 247.31 53.0185 248.063 53.1786C248.925 53.3525 249.809 53.3983 250.685 53.3148C252.535 53.1786 254.472 52.5433 256.504 52.0188C258.536 51.4944 260.568 51.2171 262.323 51.686C263.881 52.0987 265.266 52.9979 266.277 54.2527C266.972 55.0862 267.487 56.0545 267.789 57.0968C267.991 57.838 268.016 58.2717 268.052 58.2667C268.058 58.1626 268.058 58.0581 268.052 57.954C268.024 57.6568 267.975 57.3619 267.905 57.0716C267.636 55.9964 267.135 54.993 266.438 54.1317C265.417 52.8254 264.002 51.8829 262.404 51.444C260.588 50.9397 258.501 51.2271 256.459 51.7566C254.416 52.2861 252.495 52.9215 250.685 53.0677C249.832 53.1559 248.971 53.1203 248.128 52.9618C247.399 52.8135 246.703 52.5369 246.071 52.1449C245.136 51.5936 244.404 50.7553 243.983 49.7547C243.848 49.3757 243.745 48.9861 243.675 48.5898Z" fill="#455A64"/>
<path d="M246.252 82.0527C246.319 82.5733 246.456 83.0823 246.661 83.5655C246.768 83.8043 246.924 84.0176 247.12 84.1914C247.315 84.3653 247.546 84.4957 247.795 84.574C248.066 84.6299 248.346 84.6172 248.61 84.537C248.874 84.4569 249.114 84.3118 249.308 84.1151C249.695 83.7078 249.944 83.1891 250.019 82.6326C250.1 82.1283 250.019 81.498 249.515 81.3366C249.311 81.2862 249.098 81.2862 248.895 81.3366L246.101 81.8409" fill="#AA6550"/>
<path d="M246.741 84.1706C247.185 84.3415 247.657 84.4304 248.133 84.4328C248.626 84.4039 249.09 84.1916 249.434 83.8378C249.637 83.6214 249.792 83.3643 249.889 83.0835C249.985 82.8027 250.021 82.5047 249.994 82.209C249.979 82.0575 249.945 81.9084 249.893 81.7653C249.827 81.6291 249.848 81.6392 249.732 81.6241C249.616 81.609 249.434 81.6241 249.283 81.6493L248.814 81.6846C248.209 81.73 247.664 81.7653 247.205 81.7905C246.702 81.8604 246.192 81.8502 245.692 81.7602C246.164 81.5881 246.658 81.4861 247.16 81.4577C247.614 81.3921 248.168 81.3266 248.758 81.256L249.222 81.2055C249.389 81.181 249.558 81.1659 249.726 81.1602C249.86 81.1638 249.989 81.2097 250.095 81.2913C250.189 81.3745 250.26 81.4804 250.301 81.5989C250.37 81.7805 250.414 81.9704 250.432 82.1636C250.466 82.5267 250.418 82.8926 250.293 83.2351C250.169 83.5777 249.97 83.8885 249.711 84.1454C249.281 84.5546 248.707 84.7775 248.113 84.7656C247.725 84.7672 247.344 84.6607 247.014 84.458C246.842 84.3168 246.726 84.1908 246.741 84.1706Z" fill="#263238"/>
<path d="M244.24 92.3652C244.24 92.3652 249.323 94.2915 254.27 92.8695C254.27 92.8695 250.539 96.001 243.731 94.8008L244.24 92.3652Z" fill="#AA6550"/>
<path d="M251.996 164.662C251.751 164.501 251.518 164.322 251.3 164.127C251.083 163.95 250.796 163.734 250.488 163.502C250.18 163.27 249.807 162.997 249.379 162.72C248.95 162.443 248.506 162.14 247.987 161.853C247.468 161.565 246.918 161.263 246.328 160.96C243.741 159.687 240.959 158.856 238.098 158.499C237.438 158.429 236.812 158.348 236.222 158.333C235.632 158.318 235.083 158.293 234.584 158.298C234.084 158.303 233.625 158.328 233.227 158.343C232.829 158.358 232.486 158.388 232.219 158.419C231.93 158.463 231.638 158.483 231.346 158.479C231.63 158.406 231.918 158.353 232.208 158.318C232.542 158.261 232.879 158.22 233.217 158.197C233.615 158.167 234.069 158.111 234.579 158.111C235.088 158.111 235.637 158.081 236.233 158.111C236.828 158.141 237.463 158.192 238.129 158.252C239.571 158.432 240.998 158.725 242.395 159.13C243.781 159.556 245.13 160.094 246.429 160.738C247.019 161.051 247.589 161.338 248.088 161.661C248.587 161.984 249.061 162.271 249.474 162.564C249.888 162.856 250.251 163.139 250.569 163.381C250.886 163.623 251.149 163.855 251.355 164.046C251.586 164.233 251.8 164.439 251.996 164.662Z" fill="#FAFAFA"/>
<path d="M222.36 138.762L226.495 120.845C228.079 114.108 229.954 107.634 233.106 106.867V108.95L231.755 160.138C231.755 160.138 223.328 169.719 212.593 164.404C209.234 162.735 203.107 151.01 203.107 151.01C203.107 151.01 188.852 125.575 189.447 124.421C190.042 123.266 198.751 112.041 199.638 111.481L222.36 138.762Z" fill="#E29C40"/>
<path d="M264.91 101.795C273.13 103.368 282.383 108.164 286.644 120.453C288.197 124.941 299.513 158.025 299.513 158.025L280.215 157.622L277.098 150.809L278.611 161.878L279.917 177.661L231.185 178.483L231.528 154.702L231.997 107.402C231.997 107.402 232.542 106.686 240.948 102.052C246.162 99.1728 264.91 101.795 264.91 101.795Z" fill="#E29C40"/>
<g opacity="0.2">
<path d="M269.771 133.433C270.573 143.417 271.491 146.503 272.292 156.488C272.312 157.433 272.482 158.369 272.797 159.261C272.965 159.704 273.235 160.102 273.586 160.422C273.936 160.742 274.357 160.974 274.814 161.102C276.236 161.389 278.081 162.418 278.48 161.026L277.133 151.41C276.844 150.011 276.397 148.649 275.802 147.35C272.812 140.709 271.708 140.321 269.751 133.433" fill="black"/>
</g>
<path d="M240.942 107.17L241.104 106.131L242.662 96.1667C242.707 95.8771 242.86 95.6152 243.09 95.4337C243.32 95.2522 243.61 95.1646 243.902 95.1884L263.09 96.792C263.669 96.8396 264.206 97.1144 264.584 97.5565C264.962 97.9985 265.15 98.572 265.107 99.1519L264.678 104.941L258.687 112.757L250.059 114.103" fill="#E29C40"/>
<path d="M231.306 125.903C231.382 125.903 231.437 133.709 231.437 143.336C231.437 152.962 231.382 160.768 231.306 160.768C231.23 160.768 231.175 152.962 231.175 143.336C231.175 133.709 231.235 125.903 231.306 125.903Z" fill="#263238"/>
<path d="M280.628 159.225C280.628 159.225 280.628 159.19 280.568 159.114C280.507 159.038 280.472 158.912 280.406 158.771L279.821 157.445L277.719 152.548L270.866 136.357C269.534 133.19 268.269 130.174 267.119 127.426C266.538 126.139 266.121 124.783 265.878 123.392C265.666 122.176 265.554 120.945 265.546 119.711C265.481 117.922 265.741 116.137 266.312 114.441L266.468 114.023L266.645 113.67C266.728 113.482 266.829 113.303 266.948 113.135L267.159 112.823C267.184 112.787 267.211 112.753 267.24 112.722C266.908 113.279 266.63 113.867 266.408 114.477C265.88 116.169 265.652 117.94 265.732 119.711C265.741 122.34 266.288 124.941 267.341 127.35L271.108 136.271L277.89 152.493L279.907 157.42L280.447 158.766L280.583 159.119C280.601 159.153 280.616 159.188 280.628 159.225Z" fill="#263238"/>
<path d="M270.891 103.555C270.714 103.734 270.528 103.902 270.331 104.059C269.764 104.491 269.146 104.852 268.491 105.133C267.452 105.566 266.365 105.871 265.253 106.041C263.783 106.269 262.302 106.416 260.816 106.479C259.162 106.55 257.356 106.52 255.42 106.555C253.363 106.552 251.314 106.802 249.318 107.301C247.108 107.824 245.107 109.003 243.58 110.685C242.819 111.601 242.274 112.676 241.986 113.832C241.679 115.017 241.7 116.263 242.047 117.437C242.24 118.016 242.524 118.561 242.889 119.051C243.257 119.526 243.721 119.918 244.251 120.2C244.765 120.482 245.351 120.605 245.935 120.553C246.506 120.495 247.035 120.225 247.417 119.797C247.758 119.347 248.001 118.83 248.129 118.28C248.258 117.73 248.27 117.16 248.164 116.605C248.08 116.057 247.91 115.526 247.659 115.032C247.411 114.549 247.111 114.095 246.767 113.675C245.419 112.122 243.604 111.048 241.593 110.614C239.851 110.203 238.035 110.224 236.303 110.675C234.879 111.043 233.518 111.627 232.269 112.405C231.318 112.998 230.42 113.673 229.587 114.422C228.896 115.027 228.407 115.551 228.074 115.894L227.701 116.297C227.66 116.346 227.614 116.39 227.564 116.429C228.158 115.678 228.816 114.982 229.531 114.346C230.357 113.582 231.251 112.897 232.204 112.299C233.465 111.496 234.843 110.894 236.288 110.514C238.049 110.041 239.898 110.01 241.674 110.423C243.736 110.858 245.6 111.954 246.984 113.544C247.336 113.965 247.644 114.421 247.901 114.906C248.156 115.425 248.326 115.982 248.406 116.555C248.494 117.139 248.484 117.734 248.375 118.315C248.267 118.919 248.001 119.484 247.604 119.953C247.18 120.429 246.594 120.729 245.96 120.795C245.324 120.856 244.685 120.724 244.124 120.417C243.562 120.117 243.069 119.701 242.677 119.197C242.292 118.684 241.993 118.111 241.79 117.503C241.427 116.283 241.406 114.987 241.729 113.756C242.023 112.56 242.588 111.448 243.378 110.503C244.943 108.788 246.988 107.584 249.248 107.049C251.266 106.556 253.338 106.315 255.415 106.333C257.356 106.303 259.162 106.333 260.806 106.288C262.286 106.236 263.762 106.103 265.228 105.889C266.334 105.731 267.417 105.443 268.455 105.032C269.107 104.768 269.726 104.429 270.301 104.024C270.503 103.888 270.639 103.761 270.74 103.691C270.785 103.641 270.836 103.595 270.891 103.555Z" fill="#FAFAFA"/>
<path d="M287.567 124.542C287.496 124.562 287.423 124.574 287.35 124.578C287.209 124.578 287.002 124.613 286.73 124.623C285.968 124.648 285.205 124.63 284.445 124.568C283.482 124.497 282.343 124.351 281.082 124.174C279.821 123.998 278.44 123.811 276.977 123.736C275.61 123.661 274.239 123.765 272.898 124.043C271.801 124.266 270.749 124.666 269.781 125.228C268.905 125.764 268.127 126.446 267.482 127.245C267.509 127.178 267.547 127.115 267.593 127.059C267.699 126.88 267.821 126.712 267.956 126.554C268.445 125.958 269.029 125.446 269.686 125.042C270.659 124.447 271.727 124.02 272.842 123.781C274.204 123.484 275.6 123.372 276.992 123.448C278.47 123.524 279.857 123.725 281.117 123.912C282.378 124.099 283.507 124.265 284.461 124.356C285.414 124.447 286.195 124.487 286.73 124.492C287.009 124.492 287.289 124.508 287.567 124.542Z" fill="#FAFAFA"/>
<path d="M275.449 147.148C274.501 146.927 273.526 146.844 272.555 146.901C271.415 146.978 270.287 147.179 269.191 147.501C267.905 147.849 266.468 148.358 264.854 148.857C263.102 149.452 261.268 149.77 259.418 149.8C257.288 149.8 255.181 149.362 253.226 148.515C251.054 147.597 249.122 146.192 247.578 144.41C246.743 143.478 246.062 142.42 245.561 141.273C245.028 140.087 244.828 138.778 244.981 137.486C245.157 136.184 245.792 134.988 246.772 134.113C247.258 133.688 247.842 133.391 248.471 133.245C249.086 133.115 249.724 133.133 250.332 133.297C250.939 133.46 251.499 133.766 251.965 134.188C252.421 134.606 252.738 135.154 252.873 135.757C253.004 136.347 252.956 136.963 252.737 137.527C252.525 138.068 252.204 138.561 251.794 138.974C251.012 139.757 250.067 140.358 249.026 140.734C248.535 140.92 248.029 141.06 247.513 141.152C247.261 141.198 247.009 141.253 246.761 141.289L246.01 141.379C244.167 141.562 242.307 141.431 240.509 140.991C239.025 140.638 237.596 140.088 236.258 139.357C235.246 138.811 234.297 138.154 233.429 137.401L232.924 136.962L232.511 136.543C232.288 136.332 232.079 136.106 231.886 135.868L231.523 135.434C231.481 135.387 231.444 135.336 231.412 135.283C231.46 135.325 231.506 135.37 231.548 135.419L231.926 135.832C232.126 136.064 232.34 136.283 232.566 136.488L232.985 136.896L233.489 137.325C234.361 138.058 235.31 138.695 236.318 139.226C237.649 139.937 239.068 140.47 240.539 140.809C242.32 141.234 244.159 141.353 245.98 141.162L246.716 141.072C246.963 141.031 247.22 140.976 247.462 140.93C247.967 140.839 248.461 140.701 248.94 140.517C249.947 140.15 250.861 139.567 251.617 138.808C252.003 138.417 252.305 137.952 252.505 137.441C252.703 136.921 252.747 136.356 252.631 135.812C252.482 135.257 252.183 134.753 251.768 134.355C251.353 133.957 250.837 133.679 250.276 133.553C249.702 133.387 249.094 133.37 248.511 133.503C247.928 133.636 247.389 133.916 246.943 134.315C246.009 135.147 245.406 136.287 245.244 137.527C245.099 138.77 245.291 140.029 245.798 141.173C246.286 142.292 246.946 143.328 247.755 144.243C249.272 145.993 251.17 147.373 253.302 148.278C255.225 149.117 257.3 149.556 259.398 149.569C261.23 149.546 263.046 149.24 264.784 148.661C266.392 148.157 267.809 147.683 269.136 147.345C270.243 147.034 271.381 146.846 272.529 146.785C272.947 146.759 273.367 146.759 273.785 146.785C274.143 146.84 274.451 146.866 274.693 146.921L275.242 147.057C275.315 147.078 275.385 147.108 275.449 147.148Z" fill="#FAFAFA"/>
<path d="M231.14 141.768C231.094 141.768 230.862 141.264 230.373 140.417C229.093 138.267 227.227 136.526 224.993 135.399C224.135 134.966 223.571 134.774 223.586 134.729C223.727 134.741 223.867 134.773 223.999 134.824C224.366 134.934 224.725 135.068 225.073 135.228C226.229 135.755 227.291 136.465 228.22 137.331C229.15 138.195 229.932 139.207 230.535 140.326C230.725 140.661 230.894 141.008 231.039 141.365C231.09 141.494 231.124 141.63 231.14 141.768Z" fill="#FAFAFA"/>
<path d="M211.574 163.35C211.574 163.35 211.539 163.31 211.493 163.224C211.448 163.138 211.372 163.002 211.287 162.846C211.105 162.513 210.843 162.014 210.52 161.368C209.583 159.546 208.81 157.644 208.211 155.685C207.809 154.324 207.567 152.922 207.489 151.505C207.449 150.714 207.481 149.92 207.585 149.135C207.711 148.304 207.91 147.485 208.18 146.689C208.769 144.969 209.788 143.427 211.14 142.211C211.863 141.549 212.712 141.039 213.637 140.714C214.561 140.389 215.543 140.255 216.521 140.32C217.537 140.396 218.486 140.858 219.173 141.611C219.5 141.984 219.737 142.426 219.868 142.904C219.998 143.382 220.017 143.883 219.925 144.37C219.816 144.847 219.566 145.281 219.209 145.615C218.859 145.935 218.437 146.166 217.978 146.286C217.09 146.517 216.148 146.403 215.341 145.968C214.592 145.564 213.937 145.005 213.42 144.329C212.924 143.703 212.515 143.013 212.204 142.277C211.659 140.957 211.432 139.526 211.544 138.102C211.646 136.926 211.989 135.785 212.552 134.748C212.97 133.966 213.504 133.252 214.136 132.63C214.531 132.236 214.965 131.883 215.432 131.576C215.588 131.471 215.719 131.405 215.805 131.355L215.936 131.289C215.936 131.289 215.774 131.405 215.462 131.622C215.012 131.943 214.591 132.304 214.206 132.701C213.602 133.328 213.092 134.04 212.693 134.814C212.157 135.837 211.837 136.96 211.75 138.112C211.653 139.508 211.888 140.908 212.436 142.196C212.742 142.91 213.143 143.58 213.626 144.188C214.128 144.835 214.76 145.37 215.482 145.756C216.236 146.162 217.115 146.267 217.943 146.049C218.367 145.95 218.756 145.735 219.067 145.429C219.377 145.123 219.597 144.737 219.703 144.314C219.783 143.869 219.762 143.411 219.641 142.974C219.521 142.538 219.304 142.134 219.007 141.793C218.363 141.091 217.476 140.662 216.526 140.593C215.584 140.531 214.639 140.66 213.748 140.973C212.857 141.285 212.038 141.775 211.342 142.413C210.022 143.6 209.024 145.103 208.442 146.78C208.17 147.559 207.97 148.36 207.842 149.175C207.738 149.947 207.702 150.727 207.736 151.505C207.807 152.907 208.037 154.296 208.422 155.645C209.003 157.599 209.745 159.502 210.641 161.333L211.362 162.846C211.438 163.007 211.498 163.138 211.549 163.239C211.599 163.34 211.574 163.35 211.574 163.35Z" fill="#FAFAFA"/>
<path d="M205.346 118.834C205.346 118.834 205.372 118.905 205.392 119.041C205.427 119.244 205.453 119.45 205.467 119.656C205.534 120.409 205.534 121.167 205.467 121.92C205.264 124.428 204.406 126.839 202.979 128.912C201.553 130.985 199.608 132.648 197.339 133.735C196.659 134.067 195.952 134.338 195.226 134.547C194.974 134.628 194.767 134.663 194.631 134.698C194.495 134.733 194.419 134.738 194.419 134.728C194.672 134.619 194.931 134.527 195.196 134.451C195.903 134.206 196.592 133.911 197.258 133.569C199.467 132.453 201.36 130.799 202.763 128.76C204.166 126.721 205.033 124.362 205.286 121.9C205.365 121.156 205.394 120.408 205.372 119.661C205.345 119.386 205.337 119.11 205.346 118.834Z" fill="#FAFAFA"/>
<path d="M291.979 140.698C291.229 141.168 290.569 141.77 290.032 142.474C289.528 143.124 289.024 143.986 288.454 144.894C287.829 145.91 287.108 146.864 286.301 147.743C284.824 149.338 283.074 150.655 281.132 151.631C280.548 151.927 279.945 152.185 279.327 152.402C279.101 152.491 278.869 152.558 278.631 152.604C278.84 152.485 279.059 152.385 279.286 152.307C279.71 152.12 280.325 151.858 281.046 151.465C282.93 150.452 284.634 149.135 286.089 147.567C286.888 146.701 287.605 145.765 288.232 144.768C288.733 143.935 289.281 143.13 289.871 142.358C290.281 141.84 290.769 141.389 291.318 141.021C291.467 140.922 291.624 140.836 291.787 140.764C291.918 140.714 291.979 140.688 291.979 140.698Z" fill="#FAFAFA"/>
<path d="M264.728 102.4C264.655 102.432 264.576 102.452 264.497 102.461L263.826 102.582C263.241 102.677 262.394 102.804 261.35 102.945C259.252 103.227 256.348 103.56 253.125 103.797C251.617 103.935 250.102 103.989 248.587 103.958C247.338 103.928 246.099 103.715 244.911 103.328C244.109 103.068 243.352 102.685 242.667 102.193C242.48 102.062 242.302 101.919 242.132 101.765C242.021 101.654 241.966 101.598 241.971 101.588C241.976 101.578 242.233 101.79 242.722 102.093C243.419 102.54 244.174 102.89 244.966 103.131C246.144 103.49 247.366 103.68 248.597 103.696C250.112 103.712 251.627 103.652 253.135 103.515C256.348 103.278 259.252 102.98 261.35 102.743L263.836 102.461C264.132 102.42 264.43 102.399 264.728 102.4Z" fill="#263238"/>
<path d="M299.286 161.596C299.665 163.546 299.611 165.557 299.127 167.484C298.643 169.412 297.74 171.209 296.484 172.749C295.227 174.289 293.648 175.534 291.856 176.395C290.065 177.256 288.107 177.712 286.119 177.732L247.921 177.308L248.93 164.939L281.636 160.027" fill="#B78876"/>
<path d="M251.27 165.478C251.093 165.534 248.889 164.545 246.913 163.633C244.816 162.661 242.514 162.215 240.206 162.332L231.099 162.796C231.099 162.796 231.659 164.308 232.612 164.813C233.565 165.317 239.278 165.478 239.278 165.478L238.986 165.776C237.791 167.006 236.162 167.72 234.447 167.763H233.575C232.929 167.711 232.291 167.586 231.674 167.389L229.43 166.482C228.749 166.179 228.033 166.225 227.736 166.91C227.438 167.596 227.665 168.383 229.521 169.316C230.554 169.82 234.397 171.166 234.397 171.166C234.423 171.713 234.499 172.257 234.624 172.79C234.79 173.35 236.298 173.91 236.298 173.91C236.69 174.739 237.138 175.541 237.639 176.31C237.816 176.512 239.182 176.94 240.64 177.349C242.989 178.006 245.476 177.987 247.815 177.293L251.285 176.254V165.665" fill="#FFBE9D"/>
<path d="M238.815 172.391C237.21 172.351 235.637 171.936 234.221 171.181C234.221 171.121 235.229 171.504 236.505 171.832C237.781 172.159 238.82 172.316 238.815 172.391Z" fill="#AA6550"/>
<path d="M238.492 174.515C238.064 174.604 237.62 174.571 237.211 174.419C236.783 174.34 236.385 174.145 236.061 173.854C236.473 173.937 236.878 174.053 237.271 174.202C237.685 174.275 238.093 174.38 238.492 174.515Z" fill="#AA6550"/>
<path d="M240.156 164.656C239.956 164.937 239.721 165.189 239.455 165.408C238.851 165.984 238.184 166.492 237.468 166.92C236.746 167.342 235.961 167.645 235.143 167.818C234.815 167.906 234.475 167.943 234.135 167.929C235.262 167.67 236.35 167.265 237.372 166.724C238.073 166.301 238.739 165.824 239.364 165.297C239.608 165.06 239.873 164.846 240.156 164.656Z" fill="#AA6550"/>
<path d="M252.197 163.819L251.27 177.807H287.249C289.692 177.809 292.089 177.145 294.182 175.886C296.552 174.462 298.425 172.343 299.548 169.816C300.67 167.29 300.987 164.479 300.455 161.766C299.938 159.11 299.161 156.511 298.136 154.006L280.043 156.986L280.623 159.235L252.197 163.819Z" fill="#E29C40"/>
<path d="M288.958 158.061C288.839 158.095 288.718 158.122 288.595 158.142L287.541 158.333L283.653 158.979L270.865 160.996L258.062 162.957L254.179 163.522L253.12 163.663C252.997 163.68 252.872 163.691 252.747 163.694C252.866 163.652 252.99 163.623 253.115 163.608L254.164 163.421L258.037 162.771L270.825 160.754L283.653 158.777L287.536 158.212L288.595 158.071C288.716 158.055 288.837 158.051 288.958 158.061Z" fill="#263238"/>
<path d="M270.543 177.818C270.477 177.818 270.759 176.809 270.795 175.16C270.802 174.712 270.784 174.265 270.739 173.819C270.696 173.311 270.622 172.805 270.517 172.306C270.268 171.156 269.875 170.041 269.347 168.988C268.808 167.94 268.148 166.959 267.381 166.063L266.876 165.473C266.705 165.282 266.518 165.115 266.347 164.944C266.009 164.596 265.651 164.319 265.338 164.051C264.053 163.043 263.14 162.539 263.17 162.493C263.393 162.582 263.608 162.692 263.811 162.821C264.062 162.952 264.304 163.098 264.537 163.26C264.804 163.451 265.137 163.638 265.454 163.91C265.818 164.182 266.164 164.475 266.493 164.788C266.67 164.959 266.866 165.12 267.043 165.292L267.593 165.887C268.382 166.788 269.06 167.782 269.61 168.847C270.144 169.922 270.537 171.06 270.779 172.236C270.883 172.75 270.95 173.27 270.981 173.794C271.013 174.247 271.013 174.702 270.981 175.155C270.972 175.532 270.938 175.907 270.88 176.28C270.853 176.56 270.804 176.839 270.734 177.112C270.691 177.352 270.627 177.588 270.543 177.818Z" fill="#FAFAFA"/>
<path d="M292.448 176.764C291.886 176.761 291.326 176.695 290.779 176.567C290.134 176.42 289.508 176.198 288.913 175.907C288.125 175.515 287.413 174.986 286.81 174.344C286.079 173.557 285.549 172.605 285.262 171.57C285.103 170.995 285.013 170.402 284.995 169.805C284.959 169.174 285.01 168.541 285.146 167.924C285.281 167.267 285.534 166.64 285.893 166.074C286.267 165.473 286.787 164.977 287.405 164.632C288.045 164.259 288.78 164.083 289.518 164.127C289.898 164.154 290.269 164.256 290.607 164.43C290.946 164.603 291.246 164.843 291.49 165.136C291.742 165.424 291.931 165.762 292.046 166.127C292.161 166.493 292.198 166.878 292.156 167.259C292.094 167.628 291.95 167.979 291.736 168.286C291.521 168.593 291.241 168.849 290.915 169.034C289.695 169.673 288.289 169.866 286.942 169.578C285.029 169.28 283.28 168.323 281.999 166.871C280.718 165.42 279.985 163.566 279.927 161.631C279.895 161.069 279.943 160.506 280.068 159.957C280.022 160.512 280.008 161.069 280.028 161.626C280.122 163.144 280.618 164.609 281.465 165.872C282.097 166.799 282.911 167.587 283.858 168.188C284.805 168.789 285.864 169.19 286.972 169.367C288.259 169.643 289.603 169.465 290.774 168.862C291.067 168.697 291.319 168.469 291.512 168.194C291.706 167.919 291.836 167.605 291.893 167.274C291.923 166.929 291.884 166.581 291.78 166.251C291.675 165.921 291.506 165.615 291.282 165.35C291.059 165.085 290.785 164.867 290.477 164.709C290.17 164.55 289.833 164.453 289.488 164.425C288.804 164.378 288.122 164.534 287.527 164.874C286.966 165.208 286.485 165.66 286.115 166.198C285.745 166.736 285.496 167.347 285.383 167.99C285.247 168.588 285.194 169.203 285.227 169.815C285.241 170.393 285.324 170.967 285.474 171.525C285.74 172.533 286.245 173.462 286.947 174.233C287.523 174.866 288.206 175.393 288.964 175.791C289.545 176.088 290.157 176.319 290.789 176.482C291.848 176.719 292.453 176.729 292.448 176.764Z" fill="#FAFAFA"/>
<path d="M149.726 24.375H59.6191C54.3524 24.375 49.3015 26.4672 45.5774 30.1913C41.8533 33.9153 39.7612 38.9663 39.7612 44.2329V76.3445H20.3218L39.7612 95.7838V117.613C39.7612 122.88 41.8533 127.931 45.5774 131.655C49.3015 135.379 54.3524 137.471 59.6191 137.471H149.726C154.993 137.471 160.044 135.379 163.768 131.655C167.492 127.931 169.584 122.88 169.584 117.613V44.2329C169.584 38.9663 167.492 33.9153 163.768 30.1913C160.044 26.4672 154.993 24.375 149.726 24.375Z" fill="#01C09A"/>
<path d="M112.915 27.7685C112.345 29.246 113.323 30.8546 114.427 31.9942C115.532 33.1338 116.853 34.213 117.201 35.756C117.488 37.052 117.009 38.3983 117.125 39.7195C117.241 41.0407 117.972 42.2862 118.386 43.5771C119.137 45.9169 118.835 48.4735 118.164 50.8385C117.68 52.8038 116.756 54.6334 115.461 56.1888C114.809 56.9592 114.001 57.5823 113.09 58.0169C112.179 58.4516 111.186 58.6879 110.176 58.7101C109.891 58.728 109.605 58.6871 109.336 58.59C109.067 58.4928 108.821 58.3415 108.613 58.1453C108.33 57.7374 108.174 57.255 108.164 56.7586C107.01 46.6052 107.01 36.3536 108.164 26.2002" fill="#263238"/>
<path d="M111.851 60.4906C116.238 60.299 120.292 64.4995 119.944 68.8765C124.387 69.9607 127.508 74.847 126.656 79.335C126.369 80.8175 125.708 82.2294 125.617 83.7321C125.516 85.376 126.121 86.9746 126.419 88.5882C126.99 91.5292 126.685 94.5731 125.542 97.3422C124.851 99.0114 123.56 100.736 121.755 100.786C121.143 100.761 120.547 100.585 120.019 100.274C119.492 99.9639 119.049 99.5284 118.729 99.0063C118.1 97.9493 117.686 96.7791 117.509 95.5622C116.727 91.6188 116.5 87.5696 115.411 83.7019C114.322 79.8342 112.204 76.0219 108.709 74.0604C106.778 72.9711 104.458 72.4568 102.92 70.8583C102.147 69.9858 101.631 68.9154 101.43 67.7667C101.23 66.618 101.353 65.4361 101.786 64.3533C102.239 63.2801 102.913 62.3146 103.765 61.5196C104.616 60.7246 105.626 60.118 106.727 59.7393" fill="#263238"/>
<path d="M81.484 31.3843C81.4336 29.5085 83.1632 28.0612 84.908 27.3502C86.6527 26.6392 88.5941 26.4022 90.1473 25.3331C91.529 24.4053 92.4518 22.9581 93.6166 21.8033C95.055 20.3446 96.8557 19.2951 98.8337 18.7623C100.812 18.2296 102.896 18.2329 104.872 18.772C106.849 19.311 108.646 20.3663 110.08 21.8295C111.514 23.2927 112.532 25.1111 113.031 27.0981C113.701 29.7656 113.243 32.9223 111.14 34.6973C108.699 36.7547 105.089 36.2958 101.947 35.6554C98.8055 35.015 95.2756 34.3847 92.6635 36.2253C91.0902 37.3296 90.1826 39.1349 89.2194 40.804C88.2563 42.4731 87.0511 44.1725 85.2307 44.8028C83.4103 45.4331 80.9344 44.3439 80.8638 42.4227" fill="#263238"/>
<path d="M88.8766 31.7671C88.0958 31.8515 87.3751 32.2257 86.8569 32.8158C86.3387 33.4059 86.0607 34.1689 86.0779 34.954L87.9487 77.3122C88.0294 82.3145 95.3412 85.1233 100.697 84.9972C106.107 84.8711 106.279 82.2187 106.349 77.4584C106.46 69.5112 106.45 66.526 106.455 66.5714C106.46 66.6168 113.288 65.4216 114.685 56.4861C115.376 52.0536 115.139 44.7821 114.75 38.8368C114.402 33.4866 110.842 26.9312 105.512 27.506L88.8766 31.7671Z" fill="#FFBE9D"/>
<path d="M113.212 44.4549C113.215 44.7526 113.102 45.0396 112.897 45.2552C112.692 45.4707 112.411 45.5979 112.113 45.6097C111.969 45.6221 111.824 45.6057 111.687 45.5616C111.549 45.5174 111.422 45.4464 111.312 45.3525C111.202 45.2586 111.112 45.1439 111.047 45.0149C110.982 44.8859 110.943 44.7453 110.933 44.6012C110.929 44.3032 111.042 44.0154 111.247 43.7996C111.453 43.5837 111.735 43.4569 112.033 43.4464C112.176 43.434 112.321 43.4504 112.459 43.4945C112.596 43.5387 112.724 43.6098 112.834 43.7036C112.943 43.7975 113.034 43.9122 113.099 44.0412C113.164 44.1702 113.202 44.3108 113.212 44.4549Z" fill="#263238"/>
<path d="M113.182 42.6392C113.041 42.7905 112.173 42.135 110.943 42.135C109.713 42.135 108.81 42.7602 108.674 42.609C108.608 42.5434 108.754 42.2711 109.148 41.9837C109.679 41.614 110.311 41.4184 110.958 41.4239C111.598 41.4202 112.223 41.6197 112.743 41.9938C113.121 42.2913 113.253 42.5737 113.182 42.6392Z" fill="#263238"/>
<path d="M101.387 44.4549C101.39 44.7526 101.277 45.0396 101.072 45.2552C100.867 45.4707 100.585 45.5979 100.288 45.6097C100.144 45.6221 99.9991 45.6057 99.8616 45.5616C99.724 45.5174 99.5967 45.4464 99.4868 45.3525C99.377 45.2586 99.287 45.1439 99.222 45.0149C99.1569 44.8859 99.1182 44.7453 99.108 44.6012C99.1039 44.3032 99.2166 44.0154 99.4221 43.7996C99.6276 43.5837 99.9095 43.4569 100.207 43.4464C100.351 43.434 100.496 43.4504 100.634 43.4945C100.771 43.5387 100.899 43.6098 101.008 43.7036C101.118 43.7975 101.208 43.9122 101.273 44.0412C101.338 44.1702 101.377 44.3108 101.387 44.4549Z" fill="#263238"/>
<path d="M101.11 42.8971C100.969 43.0484 100.101 42.3928 98.8709 42.3928C97.6405 42.3928 96.7378 43.0181 96.6067 42.8669C96.5412 42.8013 96.6824 42.529 97.0757 42.2416C97.6064 41.871 98.2387 41.6738 98.886 41.6768C99.5269 41.6745 100.152 41.8758 100.671 42.2517C101.024 42.5593 101.155 42.8316 101.11 42.8971Z" fill="#263238"/>
<path d="M105.573 52.0141C105.573 51.9435 106.329 51.8124 107.59 51.651C107.903 51.6157 108.2 51.5502 108.256 51.3384C108.279 51.0133 108.205 50.6887 108.044 50.4055L107.106 48.0153C105.81 44.6115 104.867 41.8128 105.008 41.7624C105.149 41.712 106.309 44.43 107.605 47.8136L108.503 50.2189C108.698 50.5977 108.757 51.0323 108.669 51.4493C108.625 51.5593 108.557 51.658 108.469 51.7383C108.382 51.8185 108.278 51.8783 108.165 51.9133C108.001 51.9585 107.831 51.9823 107.661 51.9838C106.349 52.0746 105.578 52.0847 105.573 52.0141Z" fill="#263238"/>
<path d="M106.455 66.5768C102.255 66.6492 98.1182 65.5547 94.5039 63.415C94.5039 63.415 97.4135 69.5368 106.339 68.6796L106.455 66.5768Z" fill="#EB996E"/>
<path d="M105.058 54.9789C104.821 54.6805 104.511 54.4486 104.157 54.3054C103.804 54.1623 103.419 54.1129 103.041 54.162C102.77 54.1863 102.506 54.2654 102.266 54.3946C102.026 54.5237 101.815 54.7002 101.645 54.9133C101.481 55.119 101.384 55.3702 101.368 55.6327C101.351 55.8952 101.416 56.1564 101.554 56.3807C101.751 56.6022 102.011 56.7591 102.298 56.8311C102.586 56.903 102.889 56.8867 103.167 56.7841C103.748 56.5778 104.281 56.2571 104.736 55.8412C104.875 55.7436 104.995 55.6204 105.089 55.4781C105.135 55.4104 105.159 55.3305 105.159 55.2487C105.159 55.1668 105.135 55.0869 105.089 55.0192" fill="#EB996E"/>
<path d="M101.952 52.8809C102.154 52.8809 102.159 54.2071 103.303 55.15C104.448 56.093 105.87 55.9468 105.88 56.1586C105.88 56.2443 105.562 56.4208 104.962 56.4359C104.18 56.4501 103.417 56.1876 102.809 55.6947C102.227 55.2186 101.853 54.5352 101.765 53.7885C101.71 53.1985 101.861 52.8809 101.952 52.8809Z" fill="#263238"/>
<path d="M101.614 40.7381C101.493 41.076 100.263 40.9197 98.8205 41.0962C97.3783 41.2727 96.2084 41.671 96.0168 41.3685C95.9311 41.2273 96.1328 40.9096 96.6017 40.5869C97.2279 40.1844 97.9374 39.9299 98.6766 39.8425C99.4158 39.7551 100.165 39.8372 100.868 40.0826C101.417 40.3196 101.685 40.5818 101.614 40.7381Z" fill="#263238"/>
<path d="M112.708 39.0793C112.491 39.3567 111.644 39.0793 110.62 39.0793C109.597 39.0793 108.739 39.271 108.543 38.9785C108.452 38.8373 108.588 38.5599 108.966 38.2927C109.472 37.9761 110.061 37.8162 110.657 37.8333C111.254 37.8503 111.833 38.0435 112.32 38.3885C112.708 38.6558 112.814 38.9432 112.708 39.0793Z" fill="#263238"/>
<path d="M82.649 61.1055C83.8785 61.3541 85.1496 61.3068 86.3572 60.9674C87.5648 60.6281 88.6745 60.0065 89.5946 59.1538C90.5147 58.3012 91.2189 57.242 91.6491 56.0637C92.0792 54.8853 92.2231 53.6216 92.0687 52.3767C91.7913 50.1831 90.6113 47.9593 91.3728 45.8818C92.3813 43.1436 96.2187 42.3015 97.2374 39.5633C97.8274 37.9749 97.2979 36.1142 97.9685 34.556C98.5989 33.0936 100.142 32.2515 101.645 31.7069C103.147 31.1623 104.751 30.7891 106.012 29.8109C107.272 28.8326 108.054 26.987 107.242 25.6104C100.582 26.4094 94.0411 27.999 87.7572 30.3454C86.2999 30.89 84.7719 31.5455 83.9097 32.8365C83.002 34.2081 83.0474 35.973 83.123 37.6169C83.4962 45.6246 82.2758 53.123 82.649 61.1307" fill="#263238"/>
<path d="M80.5258 58.5941C80.475 58.5865 80.4257 58.5712 80.3795 58.5487C80.2356 58.4986 80.0984 58.4308 79.9711 58.347C79.4798 58.0292 79.0938 57.573 78.8617 57.0359C78.4801 56.187 78.3777 55.2388 78.5692 54.328C78.8729 53.1447 79.4246 52.0395 80.1879 51.0856C80.9695 49.9964 81.9629 48.892 82.6386 47.4852C82.9989 46.7702 83.2002 45.9858 83.2286 45.1857C83.1995 44.3364 83.0291 43.498 82.7244 42.7047C82.3845 41.8471 82.205 40.9344 82.1949 40.012C82.2437 39.025 82.5335 38.065 83.0389 37.2158C83.5444 36.3667 84.2501 35.6542 85.0944 35.1408C86 34.6467 87.0043 34.3607 88.0343 34.3037C89.031 34.2548 90.0181 34.0855 90.9741 33.7994C91.8717 33.4596 92.6094 32.7957 93.0416 31.9387C93.4535 31.0956 93.7812 30.2139 94.0199 29.3064C94.275 28.4358 94.6127 27.5915 95.0284 26.7851C95.7866 25.2562 96.9412 23.9589 98.3717 23.0283C99.6348 22.2342 101.113 21.8502 102.602 21.929C103.836 21.9929 105.012 22.4748 105.936 23.2956C106.624 23.9146 107.137 24.7043 107.423 25.585C107.609 26.1362 107.679 26.7198 107.63 27.2995C107.62 27.5011 107.586 27.7008 107.529 27.8945C107.529 27.8945 107.564 27.6877 107.58 27.2944C107.604 26.7237 107.518 26.1537 107.327 25.6152C106.98 24.6242 106.343 23.7606 105.499 23.1365C104.654 22.5124 103.642 22.1567 102.592 22.1156C101.144 22.0518 99.7105 22.4356 98.4877 23.2149C97.0956 24.1297 95.9743 25.4008 95.2402 26.896C94.8329 27.7027 94.5052 28.5471 94.2619 29.4174C94.0157 30.3412 93.6778 31.2382 93.2534 32.095C93.0196 32.5384 92.7147 32.9404 92.3508 33.2851C91.9745 33.6335 91.5321 33.9027 91.0498 34.0768C90.0673 34.3796 89.051 34.5591 88.0242 34.6113C87.0315 34.6636 86.0632 34.9375 85.1902 35.4131C84.3831 35.9027 83.708 36.5824 83.2237 37.3927C82.7394 38.2031 82.4607 39.1196 82.4117 40.0624C82.4207 40.9564 82.5915 41.8414 82.916 42.6745C83.2369 43.492 83.416 44.3583 83.4455 45.2361C83.4115 46.0686 83.1982 46.8839 82.8202 47.6263C82.1142 49.0685 81.1107 50.1477 80.3241 51.2419C79.5648 52.1688 79.0113 53.2466 78.7003 54.4037C78.4994 55.2841 78.5824 56.2055 78.9373 57.0359C79.1555 57.565 79.5192 58.0214 79.9862 58.352C80.3241 58.5235 80.5308 58.5739 80.5258 58.5941Z" fill="#455A64"/>
<path d="M106.44 19.7109C106.562 19.72 106.681 19.7562 106.788 19.8168C107.091 19.9452 107.374 20.1149 107.63 20.3211C108.509 21.0028 109.091 21.9969 109.255 23.0967C109.419 24.1965 109.153 25.3173 108.512 26.226C108.326 26.4969 108.106 26.7426 107.857 26.9572C107.675 27.1085 107.564 27.174 107.554 27.1589C107.839 26.8367 108.106 26.5001 108.356 26.1504C108.924 25.2643 109.152 24.2022 108.997 23.161C108.843 22.1197 108.316 21.1699 107.514 20.4875C107.171 20.2082 106.813 19.9489 106.44 19.7109Z" fill="#455A64"/>
<path d="M126.197 80.9129C126.304 80.6029 126.389 80.2862 126.454 79.9649C126.573 79.0846 126.42 78.1892 126.016 77.3982C125.394 76.237 124.404 75.3148 123.202 74.776C122.498 74.4433 121.764 74.1814 121.008 73.9944C120.222 73.7927 119.39 73.6263 118.558 73.354C117.72 73.1258 116.948 72.7044 116.304 72.1236C115.726 71.5454 115.353 70.7948 115.24 69.9855C115.103 69.2341 115.058 68.5231 114.892 67.8878C114.742 67.2999 114.465 66.7524 114.08 66.2842C113.516 65.5984 112.767 65.0891 111.921 64.8168C111.321 64.6353 110.963 64.6353 110.963 64.605C111.049 64.5965 111.135 64.5965 111.221 64.605C111.467 64.622 111.712 64.6609 111.952 64.721C112.836 64.9649 113.627 65.4691 114.221 66.1682C114.636 66.6516 114.938 67.222 115.103 67.8373C115.285 68.4979 115.34 69.219 115.482 69.9452C115.585 70.7106 115.94 71.42 116.49 71.9622C117.108 72.5112 117.845 72.9099 118.643 73.1271C119.455 73.3893 120.287 73.5607 121.079 73.7675C121.844 73.9547 122.588 74.2218 123.298 74.5642C124.54 75.1329 125.553 76.105 126.172 77.3225C126.576 78.1498 126.706 79.0838 126.545 79.9901C126.497 80.2318 126.421 80.467 126.318 80.691C126.286 80.769 126.245 80.8433 126.197 80.9129Z" fill="#455A64"/>
<path d="M87.4093 65.1199C82.871 63.9096 78.9881 59.4872 77.4047 55.085C75.8213 50.6828 75.8213 45.8771 76.2298 41.2177C76.5223 37.8442 77.1173 34.274 79.3562 31.7325C82.7348 27.9001 86.4159 25.9436 91.4989 26.1049" fill="#263238"/>
<path d="M113.782 74.9531L109.572 73.8942C110.031 73.5786 110.365 73.113 110.518 72.5773C110.671 72.0417 110.632 71.4696 110.409 70.9594C110.142 70.3054 109.701 69.7371 109.134 69.3166C108.567 68.896 107.895 68.6392 107.191 68.5742L87.9992 66.4058C87.6637 66.3611 87.3228 66.4302 87.0312 66.6021C86.7396 66.7739 86.514 67.0387 86.3906 67.3539C85.5401 69.5188 85.5115 71.3006 86.3049 72.6991H86.2141L82.5128 73.4353L76.2397 128.773L117.327 126.852L113.782 74.9531Z" fill="#F5F5F5"/>
<path d="M107.741 74.1054C107.489 74.179 107.231 74.2297 106.97 74.2567C106.465 74.3373 105.744 74.4231 104.847 74.5138C100.149 74.9502 95.4136 74.7142 90.7829 73.8129C89.8954 73.6364 89.1843 73.4751 88.6952 73.3439C88.4382 73.2941 88.1866 73.2198 87.9438 73.1221C88.2042 73.1412 88.4624 73.1834 88.7154 73.2481C89.2196 73.3439 89.9306 73.4801 90.8182 73.6314C95.4442 74.4274 100.15 74.661 104.832 74.3273C105.729 74.2667 106.455 74.2012 106.96 74.1508C107.219 74.1152 107.48 74.1 107.741 74.1054Z" fill="#263238"/>
<path d="M89.1689 82.8998C89.5732 82.0604 90.0543 81.2603 90.6061 80.5096C91.0878 79.7114 91.6432 78.9601 92.2651 78.2656C91.8602 79.1057 91.3774 79.906 90.8229 80.6558C90.3439 81.4545 89.7901 82.2059 89.1689 82.8998Z" fill="#E0E0E0"/>
<path d="M102.411 83.838C101.129 82.522 99.976 81.0868 98.9668 79.5518C99.6386 80.1805 100.25 80.871 100.792 81.6142C101.402 82.3014 101.945 83.0462 102.411 83.838Z" fill="#E0E0E0"/>
<path d="M96.259 90.8723C95.9691 89.9752 95.7615 89.0537 95.6388 88.119C95.4289 87.1999 95.309 86.2626 95.2808 85.3203C95.5714 86.2171 95.779 87.1388 95.901 88.0736C96.1052 88.9937 96.225 89.9304 96.259 90.8723Z" fill="#E0E0E0"/>
<path d="M106.37 91.3057C105.658 92.1911 104.879 93.0205 104.04 93.7866C103.261 94.6162 102.418 95.3834 101.519 96.0811C102.23 95.1955 103.009 94.3661 103.848 93.6001C104.631 92.7738 105.473 92.0069 106.37 91.3057Z" fill="#E0E0E0"/>
<path d="M92.81 100.736C90.9518 99.6257 89.4383 98.0214 88.438 96.1018C88.5086 96.0564 89.2801 97.2667 90.4954 98.5425C91.7107 99.8182 92.8604 100.67 92.81 100.736Z" fill="#E0E0E0"/>
<path d="M97.1665 108.018C97.1665 108.093 96.0167 108.461 94.6855 109.172C93.3542 109.883 92.381 110.63 92.3306 110.564C92.9653 109.885 93.7233 109.332 94.5645 108.935C95.3643 108.464 96.248 108.152 97.1665 108.018Z" fill="#E0E0E0"/>
<path d="M104.252 108.486C103.951 108.231 103.682 107.942 103.45 107.624C102.986 107.069 102.366 106.277 101.72 105.375C101.075 104.472 100.53 103.63 100.152 103.005C99.9268 102.681 99.7406 102.333 99.5972 101.966C99.8654 102.254 100.104 102.568 100.308 102.904L101.937 105.223L103.596 107.513C103.848 107.813 104.068 108.139 104.252 108.486Z" fill="#E0E0E0"/>
<path d="M104.963 114.699C103.983 115.043 102.968 115.28 101.937 115.405C100.917 115.618 99.8777 115.721 98.8359 115.713C99.8432 115.46 100.866 115.271 101.897 115.148C102.909 114.938 103.933 114.788 104.963 114.699Z" fill="#E0E0E0"/>
<path d="M93.4904 73.3241C93.4551 73.3241 93.6971 73.0216 93.9039 72.487C94.1599 71.7876 94.2362 71.0351 94.1257 70.2985C94.0006 69.5562 93.782 68.8328 93.4752 68.1453C93.3266 67.8639 93.2115 67.566 93.1323 67.2578C93.3429 67.4996 93.5132 67.7737 93.6366 68.0697C94.0034 68.753 94.2539 69.4926 94.3779 70.2582C94.4998 71.0399 94.393 71.8403 94.0703 72.5627C93.9576 72.8688 93.7556 73.1341 93.4904 73.3241Z" fill="#E0E0E0"/>
<path d="M101.165 69.1787C101.525 69.6738 101.782 70.2357 101.921 70.8315C102.061 71.4272 102.08 72.0448 101.977 72.648C101.902 72.648 101.892 71.8463 101.665 70.8932C101.438 69.9401 101.11 69.2191 101.165 69.1787Z" fill="#E0E0E0"/>
<path d="M135.783 108.608L154.895 75.0389L157.199 69.2146C157.199 69.2146 163.16 56.4063 163.573 55.0952C164.052 53.5824 164.894 53.4614 165.439 53.6732C166.286 54.0111 166.558 55.2717 166.185 56.5778C166.054 57.0266 163.739 64.0661 163.739 64.0661C164.362 63.5296 165.022 63.0391 165.716 62.5987C167.184 61.5902 169.871 61.6406 172.362 62.5281C174.853 63.4156 175.469 63.8846 175.171 64.8628C175.105 65.0465 174.999 65.2129 174.86 65.35C174.722 65.487 174.554 65.5911 174.369 65.6545C173.783 65.8995 173.125 65.9139 172.529 65.6949C168.525 64.3334 166.75 66.1386 166.75 66.1386L166.452 66.9001C166.452 66.9001 169.478 65.9369 171.172 67.2984C171.425 67.4983 171.637 67.7448 171.798 68.0246C172.346 68.2037 172.838 68.5229 173.225 68.9505C173.612 69.3782 173.881 69.8995 174.005 70.4629C174.128 71.0262 174.103 71.6122 173.931 72.1627C173.759 72.7132 173.446 73.2093 173.023 73.6017C172.839 73.8112 172.596 73.96 172.326 74.0284C172.056 74.0969 171.771 74.0817 171.51 73.985C171.266 73.8185 171.069 73.5907 170.94 73.3244C170.858 73.1911 170.765 73.0646 170.663 72.9462L169.523 74.9632C169.523 74.9632 166.715 79.3503 165.706 81.4027L152.545 116.464C152.112 117.618 151.454 118.675 150.608 119.572C149.763 120.469 148.747 121.188 147.62 121.688C146.493 122.188 145.278 122.459 144.046 122.484C142.814 122.509 141.589 122.288 140.442 121.835C139.206 121.346 138.088 120.598 137.166 119.641C136.243 118.683 135.537 117.538 135.095 116.284C134.653 115.03 134.486 113.696 134.605 112.371C134.724 111.047 135.125 109.763 135.783 108.608Z" fill="#FFBE9D"/>
<path d="M156.211 74.9227C156.887 75.3664 157.82 75.0639 158.425 74.5394C159.03 74.015 159.433 73.2939 160.018 72.7241C161.718 71.0247 164.557 70.8634 166.185 69.0833C166.412 68.8362 166.614 68.458 166.417 68.1857C166.221 67.9134 165.858 67.9638 165.555 68.0244L157.734 69.5725" fill="#FFBE9D"/>
<path d="M157.734 69.5724C157.997 69.453 158.275 69.3682 158.561 69.3202C159.1 69.1841 159.887 69.0076 160.855 68.816L164.264 68.0949L165.273 67.8881C165.661 67.7459 166.09 67.7604 166.468 67.9284C166.576 68.0085 166.657 68.1188 166.702 68.2455C166.747 68.3722 166.753 68.5093 166.72 68.6395C166.668 68.8531 166.564 69.0505 166.417 69.2143C166.154 69.506 165.858 69.7665 165.535 69.9909C164.234 70.8935 162.807 71.2616 161.667 71.8617C161.123 72.1186 160.623 72.4589 160.185 72.8702C159.781 73.2585 159.463 73.7023 159.131 74.0805C158.891 74.4141 158.581 74.6913 158.223 74.8925C157.865 75.0938 157.468 75.2142 157.058 75.2453C156.458 75.2453 156.211 74.9478 156.231 74.9428C156.494 75.0328 156.77 75.0755 157.048 75.0688C157.42 75.0073 157.775 74.8693 158.091 74.6636C158.407 74.4579 158.677 74.1889 158.884 73.8737C159.207 73.433 159.552 73.0089 159.917 72.603C160.374 72.1499 160.9 71.7721 161.475 71.4835C162.65 70.8481 164.072 70.475 165.273 69.6177C165.562 69.4124 165.829 69.1775 166.069 68.9168C166.291 68.6697 166.367 68.3722 166.211 68.2865C166.054 68.2008 165.706 68.2411 165.358 68.3117L164.35 68.4983L160.921 69.1286C159.942 69.3001 159.151 69.4312 158.601 69.5118C158.317 69.5773 158.024 69.5977 157.734 69.5724Z" fill="#EB996E"/>
<path d="M166.346 66.9102C166.547 66.442 166.854 66.0275 167.244 65.6999C167.681 65.3726 168.211 65.1957 168.757 65.1957C169.443 65.1998 170.123 65.3121 170.774 65.5285C171.439 65.7528 172.125 65.9082 172.821 65.9924C173.406 66.0595 173.998 65.969 174.536 65.7302C174.721 65.6448 174.883 65.5174 175.01 65.358C175.137 65.1987 175.225 65.0118 175.267 64.8124C175.305 64.6721 175.305 64.5241 175.267 64.3838C175.237 64.3838 175.237 64.5351 175.161 64.7872C175.106 64.9571 175.014 65.1129 174.892 65.2436C174.77 65.3742 174.621 65.4766 174.455 65.5436C173.942 65.7344 173.389 65.7967 172.846 65.7251C172.17 65.6187 171.505 65.4499 170.86 65.2209C170.186 64.9992 169.481 64.8902 168.772 64.8981C168.177 64.912 167.603 65.1251 167.143 65.5033C166.838 65.7572 166.604 66.0854 166.462 66.4563C166.336 66.7538 166.326 66.9051 166.346 66.9102Z" fill="#EB996E"/>
<path d="M166.322 56.0732C166.124 56.5244 165.965 56.9917 165.848 57.4701C165.55 58.4382 165.197 59.588 164.804 60.8587C164.41 62.1295 164.022 63.2691 163.71 64.2322C163.527 64.6891 163.387 65.1617 163.291 65.6442C163.542 65.2194 163.748 64.7699 163.906 64.3028C164.239 63.4557 164.663 62.2858 165.086 60.9495C165.51 59.6132 165.838 58.4282 166.049 57.5255C166.191 57.0524 166.282 56.5656 166.322 56.0732Z" fill="#EB996E"/>
<path d="M167.426 69.0173C167.58 69.0394 167.736 69.0394 167.89 69.0173C168.083 68.9842 168.282 68.9932 168.471 69.0437C168.661 69.0942 168.838 69.1849 168.989 69.3098C169.077 69.4023 169.139 69.5159 169.17 69.6396C169.201 69.7633 169.199 69.8928 169.165 70.0157C169.084 70.3255 168.964 70.6237 168.807 70.9032C168.605 71.254 168.539 71.6666 168.621 72.063C168.69 72.2731 168.807 72.4641 168.963 72.6208C169.118 72.7776 169.309 72.8956 169.518 72.9657C169.725 73.0313 169.943 73.0539 170.159 73.0322C170.375 73.0106 170.584 72.945 170.774 72.8396C171.127 72.6593 171.417 72.3762 171.606 72.0277C171.879 71.4531 172.066 70.8414 172.161 70.2124C172.234 69.7903 172.234 69.3587 172.161 68.9366C172.145 68.7781 172.084 68.6275 171.984 68.5029C171.959 68.5029 172.025 68.6643 172.05 68.9517C172.071 69.3631 172.036 69.7755 171.944 70.1771C171.824 70.7732 171.628 71.3512 171.359 71.8966C171.195 72.2037 170.934 72.4478 170.616 72.591C170.299 72.7342 169.943 72.7684 169.604 72.6883C169.438 72.6346 169.287 72.5428 169.162 72.4203C169.038 72.2977 168.944 72.1477 168.888 71.9824C168.822 71.653 168.878 71.3109 169.044 71.0192C169.201 70.7139 169.32 70.3904 169.397 70.0561C169.431 69.896 169.424 69.7299 169.375 69.5737C169.326 69.4174 169.239 69.2762 169.12 69.1635C168.945 69.0248 168.74 68.9288 168.521 68.8833C168.302 68.8378 168.075 68.844 167.859 68.9013C167.71 68.9162 167.563 68.9554 167.426 69.0173Z" fill="#EB996E"/>
<path d="M170.724 72.5478C170.724 72.5478 170.628 72.6789 170.638 72.9613C170.652 73.1594 170.712 73.3515 170.814 73.5222C170.916 73.6929 171.056 73.8375 171.223 73.9446C171.481 74.0933 171.774 74.1715 172.073 74.1715C172.371 74.1715 172.664 74.0933 172.922 73.9446C173.544 73.5859 174.003 73.0004 174.203 72.3108C174.423 71.6357 174.423 70.9083 174.203 70.2332C174.024 69.6875 173.702 69.1999 173.27 68.8213C172.986 68.5666 172.655 68.3681 172.297 68.2363C172.17 68.1752 172.03 68.1441 171.889 68.1456C172.338 68.3632 172.755 68.6414 173.129 68.9725C173.552 69.3853 173.851 69.9083 173.992 70.4823C174.133 71.0563 174.11 71.6583 173.926 72.22C173.745 72.8396 173.341 73.3699 172.791 73.7076C172.571 73.8365 172.322 73.9078 172.068 73.9149C171.813 73.9219 171.56 73.8645 171.334 73.7479C171.184 73.6603 171.054 73.5417 170.953 73.3999C170.852 73.2582 170.782 73.0967 170.749 72.926C170.698 72.7041 170.749 72.5478 170.724 72.5478Z" fill="#EB996E"/>
<path d="M164.36 75.7144C164.16 75.5795 163.925 75.5075 163.684 75.5077C163.069 75.4477 162.451 75.595 161.929 75.9262L162.146 76.0725C162.214 75.7396 162.262 75.4027 162.287 75.0639C162.464 73.1175 161.844 71.6147 161.783 71.6551C161.977 72.7719 162.05 73.9063 162 75.0387C161.976 75.3618 161.933 75.6833 161.874 76.0019L161.813 76.3296L162.091 76.143C162.563 75.8346 163.115 75.67 163.679 75.669C164.098 75.6791 164.35 75.7497 164.36 75.7144Z" fill="#EB996E"/>
<path d="M168.339 63.7533C168.258 63.7533 168.369 64.3585 168.903 64.8224C169.438 65.2863 170.038 65.3266 170.038 65.2409C170.038 65.1552 169.559 65.009 169.1 64.6005C168.641 64.1921 168.419 63.7231 168.339 63.7533Z" fill="#EB996E"/>
<path d="M108.674 136.463L128.668 136.659L125.315 122.152L126.439 124.89C127.476 127.418 129.241 129.58 131.51 131.103C133.779 132.625 136.45 133.437 139.182 133.437C145.505 133.437 149.877 128.732 152.55 123.004C158.803 109.611 164.829 88.0432 164.829 88.0432L152.641 77.3326C143.816 94.0238 135.526 108.516 135.526 108.516C135.526 108.516 133.131 101.24 131.28 94.7449C129.429 88.25 129.444 84.8411 126.605 81.6038C122.233 76.6216 116.016 75.3862 110.227 73.8936L110.01 100.841L108.674 136.463Z" fill="#DF8F31"/>
<path d="M85.7953 116.419L122.203 123.478L123.973 137.467H68.1511C66.623 137.485 65.1079 137.185 63.7023 136.586C62.2967 135.986 61.0315 135.1 59.9876 133.984C58.9437 132.868 58.144 131.546 57.6394 130.104C57.1349 128.662 56.9366 127.13 57.0573 125.606C57.8591 115.41 58.7314 102.854 59.3971 97.544C59.9013 93.404 61.5654 89.1228 63.5169 85.4417C66.3357 80.1368 75.7302 73.3393 83.9648 72.9863L85.523 107.665" fill="#DF8F31"/>
<g opacity="0.4">
<path d="M108.674 136.463L128.668 136.659L125.315 122.152L126.439 124.89C127.476 127.418 129.241 129.58 131.51 131.103C133.779 132.625 136.45 133.437 139.182 133.437C145.505 133.437 149.877 128.732 152.55 123.004C158.803 109.611 164.829 88.0432 164.829 88.0432L152.641 77.3326C143.816 94.0238 135.526 108.516 135.526 108.516C135.526 108.516 133.131 101.24 131.28 94.7449C129.429 88.25 129.444 84.8411 126.605 81.6038C122.233 76.6216 116.016 75.3862 110.227 73.8936L110.01 100.841L108.674 136.463Z" fill="black"/>
<path d="M85.7953 116.419L118.633 122.44C119.302 122.563 119.919 122.883 120.407 123.358C120.894 123.833 121.23 124.441 121.371 125.107L123.973 137.497H68.1511C66.623 137.516 65.1079 137.216 63.7023 136.616C62.2967 136.016 61.0315 135.13 59.9876 134.014C58.9437 132.898 58.144 131.577 57.6394 130.134C57.1349 128.692 56.9366 127.16 57.0573 125.637C57.8591 115.44 58.7314 102.884 59.3971 97.5743C59.9013 93.4343 61.5654 89.1531 63.5169 85.4719C66.3357 80.1671 75.7302 73.3696 83.9648 73.0166L85.523 107.695" fill="black"/>
</g>
<path d="M78.8618 115.38C78.8488 115.269 78.8488 115.158 78.8618 115.047C78.8618 114.8 78.8618 114.482 78.8618 114.094C78.8618 113.232 78.8618 112.042 78.8618 110.564C78.8618 107.604 78.8063 103.505 78.5794 99.0015C78.4634 96.7424 78.3172 94.5942 78.1609 92.6478C78.0877 90.92 77.8428 89.2037 77.4297 87.5244C77.1413 86.4035 76.5918 85.3668 75.8261 84.4988C75.5296 84.1959 75.2165 83.9097 74.8882 83.6416C75.2732 83.8397 75.6225 84.1004 75.9219 84.4131C76.7383 85.2747 77.326 86.327 77.6314 87.474C78.0718 89.1668 78.3354 90.9006 78.418 92.6478C78.5895 94.5993 78.7408 96.7474 78.8567 99.0065C79.0887 103.545 79.1139 107.624 79.0635 110.605C79.0332 112.087 78.9929 113.287 78.9576 114.134L78.9021 115.088C78.9002 115.186 78.8866 115.284 78.8618 115.38Z" fill="#263238"/>
<path d="M121.497 124.487C121.113 124.063 120.666 123.7 120.171 123.413C119.583 123.092 118.958 122.843 118.31 122.672C117.559 122.455 116.677 122.288 115.703 122.092C111.81 121.295 106.44 120.191 100.49 119.066C94.5394 117.942 89.1236 117.049 85.2055 116.424L80.5612 115.682L79.3005 115.471C79.1521 115.452 79.0053 115.422 78.8618 115.38C79.0106 115.381 79.1591 115.394 79.3056 115.42L80.5763 115.582C81.6756 115.728 83.2691 115.95 85.2307 116.242C89.1589 116.827 94.5797 117.694 100.535 118.809C106.49 119.923 111.861 121.053 115.739 121.89C116.712 122.102 117.594 122.283 118.351 122.515C119.006 122.7 119.634 122.968 120.222 123.312C120.599 123.525 120.939 123.797 121.23 124.119C121.308 124.199 121.379 124.285 121.442 124.376C121.477 124.436 121.502 124.487 121.497 124.487Z" fill="#263238"/>
<path d="M78.9727 115.38C78.9727 115.425 78.302 115.582 77.2632 116.005C76.6568 116.256 76.0672 116.546 75.4983 116.873C74.8104 117.283 74.1546 117.745 73.5367 118.254C72.9359 118.775 72.3761 119.341 71.8626 119.949C71.44 120.449 71.0525 120.978 70.7028 121.532C70.1077 122.485 69.8354 123.13 69.79 123.11C69.8214 122.948 69.874 122.79 69.9464 122.641C70.1182 122.227 70.3169 121.824 70.5414 121.436C70.8781 120.861 71.2573 120.311 71.676 119.792C72.7111 118.522 73.9773 117.46 75.4075 116.661C75.9869 116.334 76.5924 116.055 77.2178 115.829C77.6385 115.672 78.0699 115.545 78.5088 115.45C78.6593 115.405 78.8155 115.382 78.9727 115.38Z" fill="#263238"/>
<path d="M125.985 124.093C125.951 123.979 125.925 123.863 125.91 123.745C125.869 123.493 125.814 123.16 125.748 122.737C125.607 121.864 125.421 120.604 125.209 119.04C124.785 115.919 124.271 111.592 123.837 106.802C123.403 102.011 123.146 97.6646 123.005 94.513C122.934 92.9397 122.894 91.6639 122.874 90.7814C122.874 90.3612 122.874 90.025 122.874 89.7729C122.863 89.6555 122.863 89.5373 122.874 89.4199C122.901 89.5356 122.915 89.6541 122.914 89.7729L122.98 90.7814C123.035 91.6891 123.106 92.9548 123.197 94.5029C123.383 97.6495 123.676 101.991 124.104 106.777C124.533 111.562 125.022 115.889 125.4 119.015C125.587 120.558 125.743 121.814 125.854 122.722C125.9 123.14 125.94 123.473 125.97 123.73C125.991 123.85 125.996 123.972 125.985 124.093Z" fill="#263238"/>
<path d="M138.057 118.672C138.057 118.672 137.941 118.561 137.765 118.339C137.52 118.018 137.296 117.681 137.094 117.331C135.741 115.021 135.117 112.357 135.304 109.686C135.329 109.285 135.383 108.885 135.465 108.491C135.483 108.344 135.521 108.2 135.576 108.062C135.622 108.062 135.526 108.688 135.491 109.696C135.406 112.329 136.015 114.937 137.255 117.26C137.729 118.133 138.098 118.642 138.057 118.672Z" fill="#263238"/>
<path d="M78.7158 96.6411C78.7158 96.6411 78.6503 96.6663 78.5293 96.6815C78.3473 96.7107 78.1638 96.7292 77.9796 96.7369C77.3032 96.7654 76.6258 96.7112 75.9626 96.5756C74.9774 96.3776 74.0157 96.0767 73.0933 95.678C72.0495 95.2443 70.9401 94.6695 69.7803 94.1097C68.6945 93.5644 67.5704 93.0993 66.4168 92.718C65.4807 92.4036 64.5078 92.212 63.5224 92.1481C62.6096 92.1184 61.6973 92.2221 60.8145 92.4557C60.8686 92.4197 60.9282 92.3925 60.9909 92.3751C61.1543 92.3036 61.3229 92.2446 61.4952 92.1986C62.1525 92.0225 62.8322 91.9443 63.5123 91.9666C64.5191 91.9981 65.5167 92.1678 66.4773 92.4709C67.6458 92.8468 68.7823 93.3156 69.8761 93.8727C71.0409 94.4476 72.1402 95.0124 73.1689 95.4511C74.0745 95.8534 75.0168 96.1675 75.9827 96.389C76.8818 96.5728 77.7983 96.6573 78.7158 96.6411Z" fill="#FAFAFA"/>
<path d="M84.9736 95.416C84.0049 95.7109 83.013 95.9234 82.0085 96.0514C81.0134 96.2681 80.0008 96.3947 78.9829 96.4296C79.9516 96.1347 80.9435 95.9222 81.948 95.7942C82.9431 95.5773 83.9557 95.4507 84.9736 95.416Z" fill="#FAFAFA"/>
<path d="M78.4886 106.237C78.2565 106.368 78.0115 106.475 77.7574 106.555C77.2783 106.742 76.5774 106.994 75.705 107.276C73.4238 108.008 71.0954 108.584 68.7361 109.001C67.3544 109.243 66.0282 109.419 64.818 109.54C63.7446 109.679 62.6598 109.708 61.5806 109.626C60.8485 109.567 60.1355 109.363 59.4829 109.026C59.3054 108.934 59.1366 108.826 58.9786 108.703C58.9204 108.663 58.8678 108.616 58.8223 108.562C58.8223 108.562 59.0643 108.718 59.5232 108.935C60.1768 109.23 60.8796 109.401 61.5957 109.439C62.6618 109.495 63.7307 109.447 64.7877 109.298C65.9929 109.162 67.309 108.98 68.6857 108.738C71.034 108.322 73.3572 107.775 75.6445 107.1C76.5219 106.837 77.2279 106.595 77.717 106.459C77.9684 106.366 78.2263 106.292 78.4886 106.237Z" fill="#FAFAFA"/>
<path d="M84.807 108.895C83.8984 109.039 82.9784 109.098 82.0588 109.071C81.142 109.129 80.2219 109.101 79.3105 108.986C80.2191 108.841 81.1392 108.782 82.0588 108.809C82.9755 108.751 83.8957 108.78 84.807 108.895Z" fill="#FAFAFA"/>
<path d="M58.8579 131.869C58.8637 131.776 58.8824 131.684 58.9134 131.596C58.9638 131.395 59.0344 131.148 59.1151 130.84L59.2664 130.295C59.3319 130.099 59.4176 129.892 59.4983 129.665C59.6796 129.15 59.8884 128.645 60.1236 128.152L60.5321 127.29C60.6783 126.987 60.8649 126.695 61.0363 126.382C61.4166 125.721 61.8307 125.08 62.2768 124.461C64.3369 121.613 67.0229 119.275 70.1282 117.628C70.8035 117.271 71.497 116.95 72.2058 116.665C72.5436 116.539 72.8563 116.393 73.174 116.292L74.0867 116.005C74.6096 115.838 75.1416 115.702 75.6802 115.596C75.9172 115.546 76.134 115.49 76.3357 115.455L76.9005 115.379L77.677 115.283C77.7673 115.27 77.8591 115.27 77.9494 115.283C77.8633 115.316 77.7736 115.338 77.6821 115.349L76.9156 115.495L76.3609 115.591L75.7104 115.752C75.2465 115.879 74.7019 115.984 74.1422 116.196L73.2446 116.499C72.9319 116.605 72.6193 116.751 72.2915 116.882C71.5931 117.172 70.9098 117.497 70.2442 117.855C68.7278 118.694 67.3002 119.684 65.9832 120.81C64.6823 121.958 63.4997 123.234 62.4533 124.617C61.9995 125.273 61.5507 125.888 61.2078 126.508C61.0313 126.816 60.8447 127.103 60.7035 127.401L60.2799 128.248C59.9925 128.783 59.816 129.297 59.6244 129.761C59.5387 129.983 59.4479 130.19 59.3773 130.381L59.2008 130.916L58.9537 131.657C58.9296 131.731 58.8975 131.802 58.8579 131.869Z" fill="#FAFAFA"/>
<path d="M84.1464 116.378C83.303 117.111 82.602 117.993 82.0789 118.98C81.5289 120.059 81.1382 121.213 80.9191 122.404C80.6583 123.869 80.4899 125.35 80.4148 126.836C80.352 128.334 80.1835 129.825 79.9106 131.299C79.6636 132.507 79.2369 133.672 78.6449 134.753C78.2494 135.478 77.7385 136.134 77.1321 136.695C76.9669 136.848 76.7898 136.988 76.6026 137.113C76.4765 137.199 76.4059 137.244 76.4009 137.234C77.2596 136.518 77.9748 135.645 78.5087 134.663C79.0674 133.589 79.4682 132.441 79.6988 131.254C79.9672 129.789 80.1357 128.308 80.203 126.821C80.2685 125.322 80.437 123.829 80.7073 122.353C80.9421 121.145 81.3569 119.979 81.9377 118.894C82.334 118.162 82.8447 117.498 83.4505 116.928C83.6092 116.776 83.7776 116.634 83.9548 116.504C84.013 116.454 84.0774 116.412 84.1464 116.378Z" fill="#FAFAFA"/>
<path d="M92.7544 137.552C92.6838 137.552 92.7544 133.206 92.941 127.85C93.1276 122.495 93.3192 118.153 93.3898 118.153C93.4604 118.153 93.3898 122.5 93.2032 127.86C93.0166 133.221 92.825 137.557 92.7544 137.552Z" fill="#FAFAFA"/>
<path d="M106.44 136.806C106.345 136.604 106.271 136.392 106.218 136.175C106.137 135.927 106.068 135.674 106.012 135.419C105.946 135.121 105.855 134.784 105.8 134.41C105.643 133.521 105.554 132.621 105.533 131.718C105.483 129.499 105.824 127.288 106.541 125.187C106.833 124.332 107.189 123.499 107.605 122.696C107.771 122.348 107.958 122.056 108.109 121.794C108.237 121.565 108.379 121.345 108.533 121.133C108.645 120.941 108.779 120.761 108.931 120.599C108.977 120.624 108.427 121.405 107.766 122.782C107.374 123.585 107.038 124.414 106.758 125.263C106.067 127.342 105.726 129.522 105.749 131.713C105.761 132.605 105.83 133.496 105.956 134.38C106.208 135.883 106.491 136.791 106.44 136.806Z" fill="#FAFAFA"/>
<path d="M83.1984 81.0742C83.1984 81.1146 82.4016 80.7666 81.0906 80.343C77.6756 79.2406 74.0565 78.9201 70.501 79.4051C69.1395 79.5917 68.3074 79.8035 68.2974 79.7581C68.4782 79.6708 68.6698 79.6081 68.8672 79.5715C69.3948 79.4256 69.9301 79.3094 70.4707 79.2236C74.0533 78.6283 77.7283 78.9528 81.1511 80.1665C81.6654 80.3479 82.1702 80.5549 82.6639 80.7868C82.8532 80.8602 83.0327 80.9568 83.1984 81.0742Z" fill="#FAFAFA"/>
<path d="M123.035 102.299C122.412 102.332 121.787 102.322 121.164 102.269C120.01 102.224 118.416 102.163 116.656 102.123C114.896 102.082 113.303 102.057 112.148 102.047C111.524 102.067 110.899 102.045 110.277 101.981C110.443 101.942 110.612 101.922 110.782 101.921C111.104 101.921 111.573 101.876 112.153 101.86C113.308 101.825 114.901 101.815 116.666 101.86C118.431 101.906 120.025 101.997 121.205 102.092C121.78 102.138 122.244 102.178 122.566 102.218C122.725 102.229 122.882 102.256 123.035 102.299Z" fill="#FAFAFA"/>
<path d="M132.99 100.388C132.99 100.433 132.359 100.65 131.376 101.134C128.804 102.399 126.625 104.341 125.073 106.752C124.478 107.674 124.19 108.29 124.15 108.264C124.178 108.105 124.233 107.952 124.311 107.81C124.488 107.41 124.69 107.021 124.916 106.646C125.656 105.399 126.585 104.274 127.67 103.312C128.751 102.348 129.974 101.554 131.295 100.958C131.694 100.778 132.103 100.623 132.521 100.494C132.672 100.438 132.829 100.402 132.99 100.388Z" fill="#FAFAFA"/>
<path d="M128.078 84.2259C127.21 84.1962 126.343 84.3173 125.516 84.5839C124.624 84.8955 123.759 85.28 122.93 85.7336C121.906 86.3011 120.836 86.7818 119.732 87.1708C117.692 87.8246 115.522 87.9649 113.414 87.5793C112.781 87.4643 112.158 87.2956 111.553 87.075C111.327 87.0042 111.109 86.9095 110.903 86.7926C110.903 86.7422 111.851 87.1405 113.424 87.3977C115.502 87.7222 117.628 87.5582 119.632 86.9187C120.723 86.5326 121.783 86.0639 122.803 85.5168C123.648 85.0688 124.53 84.6975 125.441 84.4074C126.06 84.2108 126.707 84.1171 127.357 84.1301C127.526 84.135 127.695 84.1519 127.861 84.1805C128.018 84.2007 128.083 84.2158 128.078 84.2259Z" fill="#FAFAFA"/>
<path d="M125.562 118.022C125.379 118.138 125.182 118.231 124.977 118.299C124.785 118.38 124.548 118.475 124.266 118.566C123.983 118.657 123.666 118.778 123.308 118.869C122.463 119.104 121.604 119.283 120.736 119.403C119.673 119.541 118.6 119.597 117.529 119.57C116.457 119.53 115.39 119.41 114.337 119.212C113.482 119.039 112.639 118.808 111.815 118.521C111.457 118.41 111.15 118.274 110.878 118.163C110.605 118.052 110.373 117.946 110.182 117.855C109.981 117.772 109.79 117.667 109.612 117.543C109.612 117.497 110.464 117.901 111.876 118.344C112.703 118.604 113.545 118.813 114.397 118.97C116.483 119.356 118.616 119.42 120.721 119.161C121.58 119.056 122.432 118.897 123.272 118.687C124.694 118.324 125.547 117.976 125.562 118.022Z" fill="#FAFAFA"/>
<path d="M137.15 132.948C137.078 132.902 137.012 132.848 136.953 132.786C136.837 132.67 136.646 132.514 136.449 132.282C135.84 131.631 135.306 130.914 134.855 130.144C133.4 127.565 132.626 124.658 132.606 121.698C132.61 118.757 132.995 115.83 133.751 112.989C134.023 111.9 134.255 111.022 134.442 110.422C134.528 110.145 134.598 109.918 134.654 109.731C134.709 109.545 134.734 109.489 134.745 109.494C134.743 109.578 134.73 109.662 134.704 109.742C134.664 109.933 134.608 110.165 134.543 110.448C134.392 111.098 134.185 111.96 133.933 113.034C133.237 115.866 132.883 118.771 132.879 121.688C132.895 124.601 133.624 127.466 135.002 130.033C135.434 130.802 135.94 131.527 136.514 132.196C136.913 132.681 137.165 132.928 137.15 132.948Z" fill="#FAFAFA"/>
<path d="M155.5 115.823C154.694 115.184 153.794 114.674 152.832 114.31C151.78 113.946 150.701 113.665 149.605 113.468C148.244 113.238 146.897 112.93 145.571 112.545C143.177 111.767 140.992 110.453 139.182 108.703C138.636 108.175 138.13 107.607 137.669 107.003C137.503 106.792 137.392 106.615 137.311 106.499C137.231 106.383 137.195 106.318 137.205 106.312C137.4 106.509 137.582 106.718 137.75 106.938C138.234 107.514 138.754 108.058 139.308 108.567C141.126 110.253 143.289 111.525 145.647 112.293C146.959 112.676 148.29 112.989 149.635 113.231C150.741 113.443 151.827 113.745 152.883 114.134C153.596 114.403 154.266 114.777 154.87 115.243C155.035 115.367 155.19 115.504 155.334 115.651C155.46 115.762 155.51 115.818 155.5 115.823Z" fill="#FAFAFA"/>
<path d="M161.269 98.9956C161.074 98.8567 160.894 98.6997 160.729 98.5266C160.563 98.3703 160.361 98.1787 160.109 97.9669C159.857 97.7551 159.604 97.503 159.262 97.2609C158.517 96.6601 157.735 96.106 156.922 95.6019C154.927 94.3679 152.758 93.4398 150.487 92.8486C149.559 92.6098 148.618 92.4263 147.669 92.299C147.265 92.2334 146.897 92.2082 146.574 92.1779C146.252 92.1477 145.969 92.1225 145.742 92.1124C145.504 92.1114 145.266 92.0894 145.031 92.0468C145.266 92.0105 145.505 91.9986 145.742 92.0115C146.023 91.9975 146.304 91.9975 146.584 92.0115C146.907 92.0115 147.285 92.0367 147.694 92.0922C148.654 92.1972 149.605 92.3656 150.543 92.5965C151.692 92.8909 152.817 93.2684 153.911 93.726C154.996 94.1991 156.045 94.7519 157.048 95.38C157.864 95.9005 158.644 96.4749 159.383 97.0996C159.705 97.3567 159.968 97.6038 160.21 97.8459C160.416 98.0339 160.613 98.2325 160.8 98.4409C160.975 98.6085 161.133 98.7944 161.269 98.9956Z" fill="#FAFAFA"/>
<path d="M117.146 75.8506C116.85 76.0481 116.527 76.2026 116.188 76.3095C115.392 76.6215 114.575 76.8743 113.742 77.0659C112.912 77.2613 112.07 77.3961 111.221 77.4693C110.87 77.5225 110.513 77.5225 110.162 77.4693C110.162 77.3886 111.76 77.2575 113.691 76.7986C115.623 76.3397 117.115 75.775 117.146 75.8506Z" fill="#FAFAFA"/>
<path d="M135.032 146.871C135.097 147.096 135.106 147.333 135.055 147.562C135.005 147.791 134.899 148.004 134.745 148.181C134.592 148.358 134.396 148.494 134.177 148.576C133.957 148.658 133.721 148.684 133.489 148.651C133.22 148.612 132.968 148.497 132.764 148.318C132.559 148.139 132.412 147.904 132.339 147.642L131.91 146.059H131.976C132.02 146.287 132.008 146.523 131.943 146.746C131.878 146.97 131.76 147.175 131.6 147.344C131.44 147.513 131.242 147.641 131.022 147.718C130.803 147.796 130.568 147.82 130.337 147.788C129.677 147.788 129.107 146.825 128.915 146.316C128.417 146.364 127.914 146.275 127.463 146.058C127.011 145.841 126.627 145.505 126.353 145.085L123.393 140.466L117.912 136.457L121.23 124.612L133.025 132.247C133.489 132.61 133.559 132.751 134.296 133.442L141.91 140.446C141.048 140.95 140.317 140.925 139.116 140.446C137.916 139.967 132.662 136.412 132.662 136.412L135.032 146.825" fill="#FFBE9D"/>
<path d="M124.942 137.129C124.942 137.129 125.078 137.189 125.29 137.336L125.683 137.608C125.87 137.725 126.039 137.868 126.187 138.032C126.362 138.232 126.498 138.463 126.591 138.712C126.681 138.98 126.777 139.252 126.878 139.539L127.523 141.435C127.972 142.787 128.366 144.007 128.638 144.9C128.81 145.373 128.94 145.861 129.026 146.357C128.797 145.907 128.608 145.438 128.461 144.955C128.144 144.078 127.72 142.867 127.271 141.521C127.054 140.85 126.843 140.21 126.646 139.62C126.555 139.327 126.47 139.05 126.384 138.788C126.308 138.557 126.194 138.34 126.046 138.148C125.918 137.99 125.773 137.848 125.612 137.724L125.249 137.416C125.032 137.245 124.932 137.144 124.942 137.129Z" fill="#EB996E"/>
<path d="M132.036 146.331C131.961 146.17 131.905 146.001 131.87 145.827L131.492 144.475C131.169 143.336 130.74 141.757 130.191 140.038C129.641 138.318 129.066 136.785 128.375 135.837C128.118 135.459 127.791 135.132 127.412 134.874C127.135 134.703 126.958 134.652 126.963 134.622C127.01 134.621 127.056 134.63 127.1 134.647C127.225 134.68 127.347 134.725 127.463 134.784C127.881 135.017 128.244 135.339 128.527 135.727C129.278 136.685 129.883 138.248 130.438 139.957C130.993 141.667 131.396 143.275 131.668 144.43C131.804 145.005 131.905 145.474 131.971 145.802C132.019 145.974 132.041 146.152 132.036 146.331Z" fill="#EB996E"/>
<path d="M135.082 147.047C134.991 146.88 134.922 146.703 134.876 146.518C134.75 146.115 134.593 145.625 134.407 145.046C134.023 143.8 133.514 142.075 132.964 140.169C132.415 138.263 131.956 136.589 131.578 135.278C131.447 134.792 131.165 134.361 130.771 134.048C130.611 133.945 130.442 133.857 130.267 133.785C130.316 133.773 130.368 133.773 130.418 133.785C130.559 133.817 130.694 133.873 130.816 133.952C131.257 134.254 131.582 134.697 131.739 135.207C132.153 136.453 132.642 138.177 133.201 140.084C133.761 141.99 134.235 143.729 134.573 144.985C134.724 145.57 134.855 146.069 134.956 146.498C135.017 146.676 135.06 146.86 135.082 147.047Z" fill="#EB996E"/>
<path d="M201.327 17.0786C201.21 17.0698 201.092 17.0698 200.974 17.0786L199.926 17.1089C199.694 17.1089 199.421 17.1089 199.149 17.1442L198.226 17.2753L197.147 17.4316L195.937 17.7291C193.864 18.2438 191.889 19.0956 190.092 20.2504C187.435 21.9426 185.199 24.2199 183.556 26.9082C181.913 29.5965 180.906 32.6247 180.612 35.7616C180.533 36.7024 180.514 37.6473 180.557 38.5905C180.592 39.0645 180.582 39.5537 180.653 40.0327C180.723 40.5118 180.799 41.0009 180.869 41.49C181.239 43.4941 181.901 45.4328 182.836 47.2437C183.831 49.141 185.097 50.8838 186.593 52.4174C188.187 53.9848 190.014 55.2963 192.009 56.3053C194.073 57.3615 196.307 58.0444 198.609 58.3224C199.192 58.4093 199.78 58.4581 200.369 58.4686C200.962 58.5132 201.556 58.525 202.149 58.5039C203.347 58.4545 204.537 58.3043 205.709 58.0551C208.239 57.507 210.645 56.493 212.804 55.0648L212.593 55.09L219.819 57.9896L220.247 58.161L220.126 57.7173L217.998 49.9919L217.963 50.1785C219.925 47.581 221.246 44.5577 221.821 41.3539C222.097 39.858 222.192 38.3342 222.103 36.8155C222.086 36.0871 222.017 35.3608 221.896 34.6421C221.843 34.2858 221.787 33.9328 221.73 33.5832C221.669 33.2352 221.564 32.8974 221.478 32.5746C220.267 27.8238 217.408 23.6578 213.41 20.8202C211.934 19.7641 210.32 18.9157 208.614 18.2989L207.53 17.9106L206.521 17.6484L205.583 17.4165C205.281 17.361 204.988 17.3307 204.716 17.2854C204.171 17.2198 203.708 17.124 203.269 17.1038L202.21 17.0685H201.559C201.485 17.0631 201.411 17.0631 201.337 17.0685C201.409 17.0914 201.484 17.1016 201.559 17.0988L202.205 17.1543L203.259 17.2248C203.677 17.2551 204.151 17.361 204.696 17.4417C208.619 18.1232 212.259 19.9288 215.175 22.6392C218.092 25.3497 220.158 28.8485 221.125 32.7108C221.2 33.0436 221.306 33.3764 221.367 33.7193C221.427 34.0622 221.468 34.4051 221.523 34.7581C221.639 35.4636 221.703 36.1764 221.715 36.8911C221.794 38.375 221.696 39.8631 221.422 41.3236C220.837 44.4572 219.526 47.4102 217.595 49.9465L217.529 50.0323L217.56 50.1382C218.232 52.6326 218.935 55.2094 219.667 57.8685L219.975 57.5962L212.749 54.6866L212.638 54.6413L212.532 54.7068C209.433 56.7602 205.829 57.922 202.114 58.0652C201.534 58.0855 200.953 58.0754 200.374 58.0349C199.799 58.0244 199.224 57.9756 198.655 57.8887C196.404 57.6163 194.219 56.9489 192.2 55.917C190.248 54.9295 188.459 53.649 186.895 52.1199C185.429 50.6256 184.185 48.9271 183.204 47.0773C182.294 45.2999 181.648 43.3989 181.288 41.4346C181.212 40.9303 181.137 40.4815 181.066 40.0075C180.995 39.5335 181.006 39.0595 180.97 38.5905C180.923 37.6661 180.936 36.7397 181.011 35.8171C181.285 32.7294 182.259 29.7448 183.859 27.0896C185.459 24.4344 187.642 22.1784 190.244 20.4925C192.01 19.3244 193.952 18.4492 195.997 17.9006L197.187 17.5829L198.256 17.4064L199.174 17.2551C199.457 17.2248 199.714 17.2148 199.941 17.1996L200.984 17.124C201.1 17.1209 201.215 17.1057 201.327 17.0786Z" fill="#455A64"/>
<path d="M192.828 34.3853V42.7373H191.772V38.8733H187.284V42.7373H186.228V34.3853H187.284V37.8893H191.772V34.3853H192.828ZM200.709 39.9533H196.269C196.333 40.5693 196.537 41.0613 196.881 41.4293C197.233 41.7893 197.709 41.9693 198.309 41.9693C198.669 41.9693 199.017 41.8973 199.353 41.7533C199.697 41.6013 200.045 41.3813 200.397 41.0933H200.445V42.1493C200.093 42.4053 199.745 42.5933 199.401 42.7133C199.057 42.8253 198.689 42.8813 198.297 42.8813C197.657 42.8813 197.101 42.7413 196.629 42.4613C196.157 42.1813 195.793 41.7933 195.537 41.2973C195.289 40.7933 195.165 40.2173 195.165 39.5693C195.165 38.9533 195.277 38.4013 195.501 37.9133C195.733 37.4173 196.061 37.0293 196.485 36.7493C196.909 36.4693 197.405 36.3293 197.973 36.3293C198.549 36.3293 199.041 36.4733 199.449 36.7613C199.865 37.0413 200.177 37.4293 200.385 37.9253C200.601 38.4213 200.709 38.9813 200.709 39.6053V39.9533ZM197.985 37.2053C197.489 37.2053 197.093 37.3853 196.797 37.7453C196.501 38.1053 196.325 38.5693 196.269 39.1373H199.617C199.561 38.5533 199.397 38.0853 199.125 37.7333C198.861 37.3813 198.481 37.2053 197.985 37.2053ZM202.673 33.6893H203.729V42.7373H202.673V33.6893ZM206.036 33.6893H207.092V42.7373H206.036V33.6893ZM212.087 42.8813C211.175 42.8813 210.463 42.5853 209.951 41.9933C209.439 41.3933 209.183 40.5973 209.183 39.6053C209.183 38.6133 209.439 37.8213 209.951 37.2293C210.463 36.6293 211.175 36.3293 212.087 36.3293C212.999 36.3293 213.711 36.6293 214.223 37.2293C214.735 37.8213 214.991 38.6133 214.991 39.6053C214.991 40.5973 214.735 41.3933 214.223 41.9933C213.711 42.5853 212.999 42.8813 212.087 42.8813ZM212.087 41.9693C212.671 41.9693 213.111 41.7533 213.407 41.3213C213.703 40.8893 213.851 40.3173 213.851 39.6053C213.851 38.8933 213.703 38.3213 213.407 37.8893C213.111 37.4573 212.671 37.2413 212.087 37.2413C211.503 37.2413 211.063 37.4573 210.767 37.8893C210.479 38.3213 210.335 38.8933 210.335 39.6053C210.335 40.3173 210.479 40.8893 210.767 41.3213C211.063 41.7533 211.503 41.9693 212.087 41.9693ZM217.243 33.6893H218.299V40.2173H217.243V33.6893ZM217.771 42.8813C217.547 42.8813 217.359 42.8053 217.207 42.6533C217.055 42.5013 216.979 42.3133 216.979 42.0893C216.979 41.8573 217.051 41.6653 217.195 41.5133C217.347 41.3533 217.539 41.2733 217.771 41.2733C218.003 41.2733 218.191 41.3533 218.335 41.5133C218.487 41.6653 218.563 41.8573 218.563 42.0893C218.563 42.3133 218.487 42.5013 218.335 42.6533C218.191 42.8053 218.003 42.8813 217.771 42.8813Z" fill="black"/>
</svg>
